<?xml version="1.0" encoding="UTF-8" standalone="no"?>
<!-- Created with Inkscape (http://www.inkscape.org/) -->

<svg
   width="147.33968"
   height="120.94497"
   viewBox="0 0 38.983623 32.000022"
   version="1.1"
   id="svg2298"
   inkscape:version="1.2.1 (9c6d41e, 2022-07-14)"
   sodipodi:docname="jhsar.com.br template 2.svg"
   xml:space="preserve"
   inkscape:export-filename="jhsar.com.br template 2.png"
   inkscape:export-xdpi="96"
   inkscape:export-ydpi="96"
   xmlns:inkscape="http://www.inkscape.org/namespaces/inkscape"
   xmlns:sodipodi="http://sodipodi.sourceforge.net/DTD/sodipodi-0.dtd"
   xmlns="http://www.w3.org/2000/svg"
   xmlns:svg="http://www.w3.org/2000/svg"><sodipodi:namedview
     id="namedview2300"
     pagecolor="#ffffff"
     bordercolor="#000000"
     borderopacity="0.25"
     inkscape:showpageshadow="2"
     inkscape:pageopacity="0.0"
     inkscape:pagecheckerboard="0"
     inkscape:deskcolor="#d1d1d1"
     inkscape:document-units="mm"
     showgrid="false"
     inkscape:zoom="0.9005232"
     inkscape:cx="534.68917"
     inkscape:cy="3468.5392"
     inkscape:window-width="1511"
     inkscape:window-height="961"
     inkscape:window-x="217"
     inkscape:window-y="226"
     inkscape:window-maximized="0"
     inkscape:current-layer="layer3"
     inkscape:lockguides="false" /><defs
     id="defs2295" /><g
     inkscape:groupmode="layer"
     id="layer3"
     inkscape:label="Content"
     transform="translate(-23.64713,-290.96204)"><path
       style="fill:#ff5d1a;fill-opacity:1;stroke-width:0.0530138"
       d="m 35.207194,322.93216 c -0.258704,-0.0659 -0.382177,-0.2017 -0.382177,-0.42036 0,-0.17399 0.08802,-0.27677 1.184672,-1.38339 l 1.184673,-1.19546 -0.208571,-1.29884 c -0.114713,-0.71436 -0.224366,-1.31446 -0.243676,-1.33357 -0.01932,-0.0191 -0.619584,-0.13003 -1.333948,-0.24651 l -1.298836,-0.21178 -1.196977,1.19126 c -1.179928,1.17427 -1.199867,1.19099 -1.399602,1.17424 -0.290311,-0.0244 -0.389111,-0.18377 -0.451186,-0.72804 -0.09887,-0.8669 0.09551,-1.89641 0.516356,-2.73486 0.257818,-0.51364 0.449002,-0.77955 0.899332,-1.25091 1.191676,-1.24731 2.847482,-1.74982 4.599271,-1.39576 l 0.369513,0.0747 0.226892,-0.22267 c 0.124786,-0.12248 0.226888,-0.24157 0.226888,-0.26466 0,-0.0231 -2.918139,-0.0419 -6.484748,-0.0419 -7.249076,0 -6.755495,0.0261 -7.218888,-0.3818 -0.134206,-0.11814 -0.308486,-0.33701 -0.38729,-0.48638 l -0.143279,-0.27161 -0.01383,-9.59324 c -0.01212,-8.41387 -0.004,-9.62698 0.066,-9.86778 0.103246,-0.35515 0.487885,-0.78917 0.847986,-0.95686 l 0.266146,-0.12394 h 18.316267 18.316266 l 0.265071,0.12399 c 0.331338,0.15497 0.668161,0.51647 0.8002,0.85884 0.09804,0.25419 0.101034,0.54793 0.101034,9.91047 v 9.64852 l -0.143279,0.27161 c -0.0788,0.14937 -0.253086,0.36824 -0.387291,0.48638 -0.463396,0.40791 0.03017,0.3818 -7.218889,0.3818 -3.566608,0 -6.484709,0.0179 -6.484664,0.0398 4.6e-5,0.0218 1.291807,1.32799 2.87058,2.9025 2.167249,2.16141 2.895998,2.91985 2.9746,3.09582 0.141545,0.31688 0.136834,0.81311 -0.01068,1.12697 -0.144798,0.30804 -1.908743,2.07232 -2.189016,2.18941 -0.284135,0.11872 -0.856443,0.1072 -1.123906,-0.0226 -0.144135,-0.07 -1.332305,-1.22472 -3.586546,-3.48566 -3.662201,-3.6731 -3.494282,-3.47694 -3.494282,-4.08214 0,-0.18581 0.04517,-0.35427 0.151588,-0.56523 0.155596,-0.30847 0.143113,-0.4031 -0.03824,-0.28985 -0.05666,0.0354 -0.775535,0.73598 -1.597499,1.55687 l -1.494485,1.49254 0.05865,0.20765 c 0.187525,0.66392 0.174096,1.7153 -0.03177,2.48723 -0.367124,1.37657 -1.427582,2.62918 -2.738753,3.23496 -0.696777,0.32193 -1.086717,0.40639 -1.969989,0.42661 -0.437364,0.01 -0.873716,-0.002 -0.969675,-0.0262 z m 2.137098,-0.97938 c 0.743032,-0.2355 1.524073,-0.7868 1.985107,-1.40118 0.364935,-0.48631 0.55372,-0.85677 0.721207,-1.41528 0.192366,-0.64144 0.205655,-1.53922 0.03196,-2.15947 -0.06337,-0.22629 -0.115213,-0.46402 -0.115213,-0.52828 0,-0.0827 0.507634,-0.62531 1.73506,-1.85482 l 1.73506,-1.738 -0.144499,-0.14452 -0.144503,-0.14451 -1.232717,1.22521 c -0.677996,0.67385 -1.316215,1.26845 -1.418264,1.32132 -0.116054,0.0601 -0.304688,0.0971 -0.503631,0.0988 -0.653497,0.006 -1.138537,-0.42268 -1.18354,-1.04481 -0.04116,-0.56897 0.02333,-0.66343 1.404358,-2.05748 l 1.237816,-1.24949 -0.134428,-0.12626 -0.134425,-0.12631 -1.736549,1.73362 c -1.111455,1.10958 -1.774042,1.73328 -1.840713,1.73271 -0.0573,-3.8e-4 -0.283091,-0.0483 -0.501773,-0.10631 -0.988183,-0.26192 -1.974124,-0.16278 -2.887121,0.29034 -1.28137,0.63592 -2.132932,1.82841 -2.299123,3.21958 l -0.04234,0.3544 0.135898,-0.099 c 0.07475,-0.0544 0.505381,-0.47037 0.95697,-0.9243 0.631391,-0.63467 0.851839,-0.82493 0.95425,-0.82359 0.268725,0.003 3.317635,0.51189 3.429037,0.57179 0.06326,0.034 0.139288,0.13954 0.168926,0.23453 0.105109,0.33684 0.545904,3.28733 0.511559,3.42417 -0.02055,0.082 -0.403533,0.49994 -0.945195,1.03155 l -0.9106,0.89372 0.371095,-0.0267 c 0.204106,-0.0146 0.56245,-0.0873 0.796327,-0.16145 z m 14.381507,-0.74387 c 0.21851,-0.11584 1.694059,-1.62615 1.759067,-1.80046 0.08234,-0.22085 -0.0078,-0.44379 -0.292301,-0.72303 l -0.238909,-0.23446 -1.123975,1.12399 -1.123981,1.12396 0.184022,0.19341 c 0.218891,0.23004 0.465587,0.39201 0.597516,0.39228 0.05247,1.1e-4 0.159826,-0.034 0.238561,-0.0757 z m -0.493891,-2.25583 1.111466,-1.11242 -0.235868,-0.24032 -0.235868,-0.24032 -1.127119,1.12621 -1.127122,1.1262 0.222329,0.22653 c 0.12228,0.1246 0.235466,0.22654 0.251524,0.22654 0.01606,0 0.529353,-0.50059 1.140658,-1.11242 z m -1.987138,-0.23596 c 0,-0.0317 -0.453114,-0.51019 -1.006921,-1.06342 l -1.006919,-1.00587 -0.145272,0.14527 -0.145271,0.14528 1.030993,1.032 1.030994,1.03201 0.1212,-0.11386 c 0.06665,-0.0627 0.121196,-0.13974 0.121196,-0.17141 z m 0.902079,-0.85255 0.234978,-0.23944 -1.03124,-1.03224 -1.031239,-1.03226 -0.253729,0.24991 -0.253728,0.24991 1.020761,1.02176 c 0.561416,0.56198 1.033913,1.02177 1.04999,1.02177 0.0161,0 0.134971,-0.10774 0.264207,-0.23941 z m 0.995769,-0.99507 0.11386,-0.1212 -1.032014,-1.031 -1.032013,-1.03099 -0.131771,0.13177 -0.131769,0.13178 1.01667,1.02042 c 0.559165,0.56123 1.031633,1.02041 1.049921,1.02041 0.01829,0 0.08449,-0.0546 0.147116,-0.12119 z m -3.673922,-1.68117 1.112231,-1.11316 -0.2515,-0.25151 -0.251503,-0.25151 -1.125074,1.12509 -1.125077,1.12508 0.235149,0.2396 c 0.129335,0.13178 0.248289,0.23959 0.264347,0.23959 0.01606,0 0.529702,-0.50092 1.141427,-1.11318 z m -0.231646,-2.45718 c -0.217436,-0.21743 -0.297424,-0.26254 -0.50771,-0.28623 l -0.249609,-0.0282 -0.897075,0.89709 c -0.881112,0.8811 -0.897071,0.9011 -0.897071,1.12383 0,0.20049 0.03185,0.26042 0.275243,0.51778 l 0.275239,0.29102 1.129539,-1.12862 1.129539,-1.12862 z m -5.920177,0.44337 1.221651,-1.21848 -0.239125,-0.23926 -0.23913,-0.23926 -1.212125,1.213 c -1.284207,1.28511 -1.335175,1.35799 -1.117761,1.59823 0.210747,0.23287 0.29577,0.17316 1.58649,-1.11423 z m -1.269626,-5.88498 -5.17038,-5.17058 -0.346995,-0.12445 c -0.190846,-0.0684 -0.358519,-0.11291 -0.3726,-0.0988 -0.01409,0.014 0.03575,0.18966 0.110714,0.39019 l 0.136323,0.3646 5.152937,5.15474 5.152936,5.15472 0.253725,-0.24988 0.25372,-0.24994 z m -9.855584,3.33005 c 0.317788,-0.67584 0.62128,-1.28418 0.674422,-1.35185 l 0.09662,-0.12309 h 4.343285 c 2.388807,0 4.343285,-0.0178 4.343285,-0.0396 0,-0.0217 -1.346931,-1.38754 -2.993179,-3.03505 l -2.993176,-2.99545 -0.346692,-0.91528 c -0.190684,-0.50341 -0.346695,-0.979 -0.346695,-1.05686 0,-0.18555 0.193262,-0.38697 0.371296,-0.38697 0.07741,0 0.556276,0.15506 1.064135,0.3446 l 0.923377,0.34458 3.4462,3.4459 c 1.895414,1.89524 3.470143,3.44591 3.499404,3.44591 0.02928,0 0.751657,-0.69876 1.605327,-1.5528 l 1.552133,-1.55281 -0.09221,-0.36895 c -0.13594,-0.54396 -0.121438,-1.66072 0.02882,-2.21957 0.244545,-0.90953 0.620034,-1.5845 1.252335,-2.25122 0.616262,-0.64981 1.267091,-1.05314 2.200305,-1.3636 0.425107,-0.14141 0.503661,-0.15002 1.387724,-0.15196 0.870789,-0.002 0.947698,0.006 1.086783,0.10922 0.109626,0.0815 0.15419,0.16495 0.166543,0.31182 0.01655,0.19691 -0.0045,0.22214 -1.172534,1.3996 l -1.189407,1.19909 0.209388,1.29884 c 0.115164,0.71435 0.225325,1.31418 0.244794,1.33294 0.03742,0.0362 2.398579,0.41748 2.580522,0.41687 0.06783,-2.2e-4 0.529508,-0.42373 1.271878,-1.16667 1.048434,-1.04924 1.18298,-1.1663 1.340556,-1.1663 0.263799,0 0.41769,0.18434 0.46412,0.55595 0.06335,0.50707 -0.0061,1.54498 -0.132991,1.98515 -0.522342,1.8131 -1.960057,3.1807 -3.7735,3.58951 -0.512864,0.11561 -1.529096,0.11573 -2.058189,2.6e-4 l -0.396019,-0.0865 -0.226892,0.22269 c -0.124788,0.12245 -0.226889,0.24154 -0.226889,0.26463 0,0.0231 1.560851,0.042 3.468555,0.042 h 3.468558 l 0.09662,0.12307 c 0.05313,0.0677 0.357178,0.6772 0.675633,1.35444 l 0.579015,1.23135 2.283733,-0.0159 c 2.267517,-0.0158 2.285102,-0.0167 2.476891,-0.13594 0.394214,-0.24514 0.363485,0.59244 0.363485,-9.90833 0,-9.09687 -0.0034,-9.43579 -0.09877,-9.614 -0.05432,-0.10159 -0.179568,-0.23243 -0.278323,-0.29075 -0.17861,-0.10546 -0.274748,-0.10602 -18.283764,-0.10602 H 25.043972 l -0.185549,0.10781 c -0.102052,0.0594 -0.227259,0.19052 -0.278242,0.29157 -0.08721,0.17288 -0.09269,0.74142 -0.09277,9.6122 -7.2e-5,8.51357 0.0081,9.44571 0.08432,9.60632 0.206173,0.43447 0.258928,0.44277 2.836707,0.44547 l 2.205425,0.003 z m 22.77621,-10.68182 c -0.111861,-0.045 -0.232799,-0.3307 -0.193671,-0.45753 0.05175,-0.16774 3.677327,-6.45489 3.804594,-6.59757 0.132732,-0.14883 0.455731,-0.1636 0.578995,-0.0265 0.136206,0.1515 3.794408,6.51908 3.805269,6.62357 0.02022,0.19463 -0.0048,0.28397 -0.108266,0.3875 -0.104163,0.10417 -0.17385,0.10595 -3.962781,0.10185 -2.121218,-0.003 -3.887078,-0.0164 -3.92414,-0.0313 z m 6.817809,-0.86494 c -0.03549,-0.10481 -2.881217,-5.0333 -2.906925,-5.03444 -0.01458,-6.3e-4 -0.686286,1.14358 -1.492686,2.54273 l -1.466179,2.54392 h 2.941728 c 1.907684,0 2.935523,-0.0184 2.924062,-0.0521 z m -3.22116,-0.35253 c -0.07599,-0.0966 -0.109874,-0.21703 -0.109874,-0.39047 0,-0.34665 0.146781,-0.53013 0.424109,-0.53013 0.277331,0 0.424109,0.18348 0.424109,0.53013 0,0.34668 -0.146778,0.53014 -0.424109,0.53014 -0.157628,0 -0.229483,-0.032 -0.314235,-0.13967 z m 0.02026,-1.52785 c -0.127949,-0.12793 -0.130124,-0.14518 -0.130124,-1.03127 0,-0.56064 0.0228,-0.95117 0.06032,-1.03354 0.130838,-0.28716 0.61196,-0.27541 0.733455,0.0179 0.04112,0.0993 0.056,0.45218 0.04476,1.06163 -0.01632,0.8858 -0.02055,0.91594 -0.141984,1.01416 -0.174292,0.14097 -0.408509,0.12903 -0.566433,-0.0289 z M 26.081597,294.1081 c -0.06043,-0.0768 -0.109876,-0.1929 -0.109876,-0.25792 0,-0.065 0.04944,-0.1811 0.109876,-0.25793 l 0.109873,-0.13967 h 0.787514 0.787513 l 0.109873,0.13967 c 0.06042,0.0768 0.109876,0.1929 0.109876,0.25793 0,0.065 -0.04944,0.18109 -0.109876,0.25792 l -0.109873,0.13967 H 26.978984 26.19147 Z m 2.915761,0 c -0.06043,-0.0768 -0.109877,-0.1929 -0.109877,-0.25792 0,-0.065 0.04944,-0.1811 0.109877,-0.25793 l 0.109872,-0.13967 h 0.787514 0.787508 l 0.109878,0.13967 c 0.06042,0.0768 0.109877,0.1929 0.109877,0.25793 0,0.065 -0.04944,0.18109 -0.109877,0.25792 l -0.109878,0.13967 H 29.894744 29.10723 Z m 2.915756,0 c -0.06043,-0.0768 -0.109874,-0.1929 -0.109874,-0.25792 0,-0.065 0.04945,-0.1811 0.109874,-0.25793 l 0.109876,-0.13967 h 0.787514 0.787508 l 0.109877,0.13967 c 0.06043,0.0768 0.109874,0.1929 0.109874,0.25793 0,0.065 -0.04944,0.18109 -0.109874,0.25792 l -0.109877,0.13967 H 32.810504 32.02299 Z m 7.117198,17.47633 0.27438,-0.26392 -4.253282,-0.002 -4.253278,-0.002 -0.107104,0.20994 c -0.05891,0.11548 -0.107105,0.23475 -0.107105,0.26508 0,0.0377 1.292982,0.0552 4.086003,0.0552 h 4.086004 z m 7.04526,0.14464 c 0.317659,-0.16695 0.926612,-0.16611 1.245346,0.002 l 0.223196,0.11754 h 4.087745 4.087749 l -0.03681,-0.11929 c -0.02022,-0.0656 -0.07017,-0.18488 -0.11096,-0.26506 l -0.07417,-0.1458 H 50.81807 46.138466 l -0.202392,0.20728 c -0.111316,0.11399 -0.186321,0.23328 -0.166673,0.26507 0.04691,0.0759 0.04346,0.0766 0.306155,-0.0615 z m 0.784393,-2.29284 c 1.144993,-1.14306 1.762527,-1.72296 1.834802,-1.72296 0.05993,0 0.287089,0.0455 0.504823,0.10125 0.217735,0.0558 0.609216,0.11751 0.869957,0.13736 1.563404,0.11906 3.214066,-0.86147 3.919584,-2.3283 0.217932,-0.4531 0.397988,-1.1116 0.397988,-1.45553 v -0.24141 l -0.94434,0.93906 c -0.713295,0.70932 -0.975946,0.93865 -1.073529,0.93734 -0.269703,-0.004 -3.315434,-0.51286 -3.427431,-0.57305 -0.06516,-0.0351 -0.14225,-0.1512 -0.173226,-0.26106 -0.06934,-0.2459 -0.531077,-3.15062 -0.531077,-3.34091 0,-0.1101 0.195304,-0.33015 0.940995,-1.06012 l 0.940995,-0.9212 -0.371095,0.027 c -1.568103,0.11394 -3.070832,1.40228 -3.533975,3.0298 -0.168371,0.59165 -0.169014,1.57112 -0.0015,2.15044 0.06381,0.22054 0.116002,0.44634 0.116002,0.50177 0,0.0616 -0.674346,0.77628 -1.733614,1.83733 l -1.73361,1.73655 0.126696,0.13487 0.126696,0.13486 1.22499,-1.21788 c 0.861905,-0.85689 1.294977,-1.24961 1.461127,-1.32497 0.740552,-0.33596 1.605433,0.15356 1.682158,0.95206 0.04976,0.51793 -0.03325,0.63716 -1.410671,2.02573 l -1.248164,1.25826 0.125271,0.13335 c 0.0689,0.0734 0.138531,0.13334 0.154735,0.13334 0.01621,0 0.806102,-0.77531 1.75533,-1.72294 z m -6.49967,0.82649 c 0.111316,-0.11399 0.186321,-0.23326 0.166671,-0.26507 -0.02533,-0.041 -1.34981,-0.0578 -4.554708,-0.0578 h -4.518989 l -0.116592,0.23998 c -0.06412,0.13198 -0.11659,0.25126 -0.11659,0.26506 0,0.0137 2.011006,0.025 4.468907,0.025 h 4.468908 z M 55.0763,310.4449 c 0,-0.0137 -0.05247,-0.13308 -0.116593,-0.26506 l -0.116591,-0.23998 h -3.651332 -3.651328 l -0.274383,0.26393 -0.27438,0.26392 4.042303,0.002 c 2.223266,6.3e-4 4.042304,-0.0101 4.042304,-0.024 z m -9.635683,-1.39259 c 1.309565,-1.30863 1.353587,-1.37467 1.066804,-1.60024 -0.07683,-0.0604 -0.177053,-0.10989 -0.222722,-0.10989 -0.04568,0 -0.638746,0.55388 -1.317943,1.23083 l -1.234905,1.23082 0.222839,0.22706 c 0.122565,0.12488 0.235577,0.22706 0.251139,0.22706 0.01556,0 0.57122,-0.54254 1.234788,-1.20564 z"
       id="fix" /></g><style
     type="text/css"
     id="style3254">
	.st0{fill:#000000;}
</style></svg>
