<?xml version="1.0" encoding="UTF-8" standalone="no"?>
<!-- Created with Inkscape (http://www.inkscape.org/) -->

<svg
   width="120.97173"
   height="120.94391"
   viewBox="0 0 32.007102 31.999742"
   version="1.1"
   id="svg2298"
   inkscape:version="1.2.1 (9c6d41e, 2022-07-14)"
   sodipodi:docname="jhsar.com.br template 2.svg"
   xml:space="preserve"
   inkscape:export-filename="jhsar.com.br template 2.png"
   inkscape:export-xdpi="96"
   inkscape:export-ydpi="96"
   xmlns:inkscape="http://www.inkscape.org/namespaces/inkscape"
   xmlns:sodipodi="http://sodipodi.sourceforge.net/DTD/sodipodi-0.dtd"
   xmlns="http://www.w3.org/2000/svg"
   xmlns:svg="http://www.w3.org/2000/svg"><sodipodi:namedview
     id="namedview2300"
     pagecolor="#ffffff"
     bordercolor="#000000"
     borderopacity="0.25"
     inkscape:showpageshadow="2"
     inkscape:pageopacity="0.0"
     inkscape:pagecheckerboard="0"
     inkscape:deskcolor="#d1d1d1"
     inkscape:document-units="mm"
     showgrid="false"
     inkscape:zoom="0.9005232"
     inkscape:cx="534.68917"
     inkscape:cy="3468.5392"
     inkscape:window-width="1511"
     inkscape:window-height="961"
     inkscape:window-x="217"
     inkscape:window-y="226"
     inkscape:window-maximized="0"
     inkscape:current-layer="layer3"
     inkscape:lockguides="false" /><defs
     id="defs2295" /><g
     inkscape:groupmode="layer"
     id="layer3"
     inkscape:label="Content"
     transform="translate(-262.07977,-442.52936)"><path
       id="install"
       style="fill:#ff5d1a;fill-opacity:1;stroke-width:0.0400201"
       d="m 278.01924,442.52936 c -0.13693,-6.7e-4 -0.38006,0.19196 -4.50774,3.32279 l -9.76116,7.41041 c -0.84632,0.64103 -1.56033,1.21042 -1.60093,1.27693 -0.0946,0.15516 -0.0927,0.32781 0.005,0.48833 0.15057,0.24607 0.18308,0.25167 1.60042,0.25167 h 1.28261 v 5.86734 10.57921 c 0,2.69578 -0.008,2.61021 0.24805,2.73626 0.1212,0.06 1.18075,0.0655 12.7925,0.0661 13.91339,9.9e-4 12.8326,0.0205 12.98422,-0.23616 0.0633,-0.1078 0.0687,-0.60343 0.0687,-7.36338 l -5.2e-4,-10.62467 v -1.02423 l 1.29088,-5.1e-4 c 1.2095,-2e-4 1.29846,-0.005 1.41852,-0.078 0.23956,-0.14604 0.31731,-0.43492 0.17828,-0.66198 -0.0436,-0.0712 -3.20521,-2.49581 -7.77368,-5.96088 -4.23514,-3.21226 -7.76195,-5.88639 -7.83725,-5.94279 -0.10158,-0.076 -0.1856,-0.10232 -0.32505,-0.10232 -0.0263,0 -0.0435,-0.004 -0.063,-0.004 z m 0.0646,1.16479 c 0.0377,0 3.20152,2.37742 7.03058,5.28288 l 6.96237,5.28236 -0.80357,0.0202 c -0.8712,0.0217 -0.95675,0.043 -1.05678,0.26251 -0.032,0.0702 -0.0465,0.51431 -0.0465,1.44229 v 10.63915 6.90552 h -12.08609 -12.08608 v -2.12649 -10.59625 -6.20789 l -0.13643,-0.14934 -0.13694,-0.14935 -0.817,-0.0202 -0.81649,-0.0202 6.96236,-5.28236 c 3.82925,-2.90546 6.99288,-5.28288 7.03058,-5.28288 z m 0.37672,7.63829 c -0.89592,0.005 -1.78484,0.26997 -2.52387,0.79478 -0.14905,0.10585 -1.34953,1.10954 -2.66754,2.23036 l -2.39624,2.03812 -0.18396,-0.1788 c -0.4551,-0.44222 -1.16347,-0.55606 -1.70998,-0.2744 -0.27794,0.14324 -1.33885,1.06292 -1.49086,1.29242 -0.27404,0.41372 -0.32168,1.01226 -0.11627,1.45469 0.14217,0.30623 4.17392,5.04411 4.43177,5.20796 0.41397,0.26306 1.00919,0.30629 1.44229,0.10438 0.35834,-0.16706 1.41132,-1.08155 1.58336,-1.37511 0.30257,-0.51627 0.26836,-1.17985 -0.0847,-1.64279 -0.0543,-0.0713 -0.0992,-0.13791 -0.0992,-0.14831 0,-0.0318 1.07426,-0.94672 1.11156,-0.94672 0.0303,0 2.33361,2.68085 2.48461,2.89182 0.0508,0.071 0.0173,0.11438 -0.41962,0.55242 l -0.47439,0.47594 -0.24081,-0.23513 c -0.13249,-0.12942 -0.28014,-0.25559 -0.32814,-0.28009 -0.13618,-0.0694 -1.74016,-0.0597 -1.90428,0.0114 -0.0746,0.0324 -1.2155,1.14699 -2.71301,2.65049 -2.70258,2.71339 -2.68477,2.69329 -2.80087,3.15433 -0.0651,0.25852 -0.0203,0.65632 0.10542,0.93637 0.0883,0.19669 0.25589,0.38254 1.11156,1.23352 0.55416,0.55113 1.07074,1.03432 1.14774,1.07332 0.0769,0.039 0.22037,0.0934 0.31936,0.12092 h 5.2e-4 c 0.35578,0.0986 0.73857,0.05 1.11982,-0.14159 0.21667,-0.1089 5.28495,-5.14554 5.38055,-5.34696 0.0479,-0.10109 0.0605,-0.29863 0.0605,-0.9493 0,-0.47801 -0.0179,-0.86829 -0.0424,-0.93379 -0.0232,-0.0619 -0.14885,-0.22097 -0.27957,-0.35347 l -0.23771,-0.24133 0.45113,-0.44958 0.45114,-0.4501 0.31678,0.37103 c 0.17418,0.20394 0.40509,0.47341 0.51314,0.59893 l 0.19637,0.2279 -0.0481,0.61753 c -0.0379,0.49074 -0.0375,0.63645 0.002,0.71055 0.0998,0.18641 4.73613,5.60922 4.89273,5.72265 0.41631,0.30157 1.05564,0.35051 1.52393,0.11679 0.23877,-0.11917 1.95543,-1.53908 2.19367,-1.81436 0.17793,-0.2056 0.30515,-0.48437 0.35605,-0.78135 0.0403,-0.23503 0.0373,-0.31632 -0.0202,-0.5488 -0.037,-0.15014 -0.1077,-0.34 -0.1571,-0.4222 -0.12288,-0.20441 -4.70227,-5.58989 -4.81728,-5.66529 -0.0644,-0.0422 -0.33827,-0.0794 -0.91209,-0.12402 l -0.82062,-0.0636 -0.48059,-0.57051 c -0.26441,-0.31362 -0.48059,-0.58475 -0.48059,-0.60255 0,-0.0178 0.50001,-0.53183 1.11104,-1.14256 l 1.11105,-1.11053 0.23564,0.23823 c 0.2769,0.2799 0.40369,0.34286 0.61185,0.30386 0.12703,-0.0238 0.27606,-0.15288 0.96377,-0.83458 l 0.8139,-0.80667 0.61392,-1.02164 c 0.33774,-0.56185 0.6263,-1.07036 0.6413,-1.13016 0.0149,-0.0598 0.0151,-0.15798 0,-0.21808 -0.0305,-0.12158 -0.85673,-0.98385 -1.02939,-1.07435 -0.21505,-0.11267 -0.30437,-0.0768 -1.35548,0.54518 l -1.01699,0.60204 -0.81287,0.80821 c -0.44706,0.44463 -0.83873,0.85734 -0.87023,0.91674 -0.12368,0.23307 -0.0569,0.42163 0.25941,0.73071 0.11178,0.10919 0.20309,0.21729 0.20309,0.24029 0,0.0764 -2.15694,2.20088 -2.19314,2.16008 -0.1652,-0.18624 -2.27769,-2.6899 -2.29909,-2.7249 -0.0171,-0.0279 0.14769,-0.19419 0.4222,-0.42581 l 0.45062,-0.37982 2.05982,-0.72916 c 1.13298,-0.40117 2.1206,-0.75758 2.1947,-0.79168 0.25803,-0.11877 0.37269,-0.50463 0.21652,-0.72916 -0.17019,-0.24469 -1.71047,-2.00813 -1.97611,-2.26239 -0.16258,-0.15562 -0.40334,-0.35552 -0.53536,-0.44442 -0.76724,-0.51673 -1.67034,-0.77271 -2.56626,-0.76791 z m 0.0326,0.99581 c 0.68379,10e-4 1.37156,0.19152 1.93993,0.57154 0.15035,0.10053 0.39312,0.30535 0.53951,0.45527 0.28601,0.29291 1.27434,1.44916 1.27434,1.49086 0,0.0139 -0.72458,0.2813 -1.61024,0.59428 -0.88566,0.31299 -1.62855,0.56817 -1.65055,0.56741 -0.022,-9.8e-4 -0.61065,-0.67613 -1.30844,-1.50017 l -1.26866,-1.4981 0.16847,-0.11524 c 0.55231,-0.37824 1.23186,-0.56691 1.91564,-0.56585 z m -2.82308,1.38337 c 0.0949,0.0649 2.42144,2.82159 2.40864,2.85409 -0.007,0.0173 -0.9126,0.79545 -2.0128,1.7291 -1.10019,0.93364 -2.02119,1.71007 -2.04639,1.72547 -0.0285,0.0174 -0.51151,-0.51912 -1.27434,-1.41593 -1.01428,-1.19242 -1.2194,-1.4534 -1.1746,-1.495 0.0298,-0.0277 0.95268,-0.81154 2.05052,-1.74201 1.44231,-1.22242 2.01067,-1.68182 2.04897,-1.65572 z m 10.31771,1.94304 0.0899,0.0837 c 0.0495,0.0461 0.09,0.10291 0.0899,0.12662 -1.1e-4,0.0237 -0.18488,0.35061 -0.41031,0.72656 -0.37747,0.6295 -0.45589,0.73192 -0.99012,1.2914 l -0.57981,0.60719 -0.41031,-0.41133 -0.4098,-0.41136 0.55139,-0.55087 c 0.53033,-0.52931 0.58109,-0.56781 1.31051,-1.00614 z m -16.36024,1.12551 c 0.14017,-0.0127 0.26631,0.0556 0.42323,0.21859 0.10049,0.10438 1.00689,1.16204 2.01435,2.35025 1.00745,1.1882 1.85704,2.18939 1.88774,2.22519 0.0839,0.0977 0.10988,0.33706 0.0517,0.47749 -0.0448,0.10807 -0.81253,0.80155 -1.11828,1.01028 -0.1147,0.078 -0.38204,0.0864 -0.50643,0.016 -0.076,-0.0431 -3.89176,-4.49898 -4.0659,-4.74803 -0.0891,-0.12712 -0.0889,-0.39068 5.1e-4,-0.53072 0.0964,-0.15099 0.99902,-0.90929 1.16634,-0.97979 0.0514,-0.0217 0.10004,-0.035 0.14676,-0.0393 z m 7.71839,1.7508 c 0.0801,-0.002 0.38241,0.33981 1.97921,2.21743 1.05907,1.24534 1.9343,2.28762 1.9451,2.31563 0.0113,0.0294 -0.15151,0.19375 -0.38395,0.38808 -0.22192,0.18554 -0.4161,0.34072 -0.4315,0.34572 -0.0154,0.005 -0.90467,-1.02533 -1.97611,-2.28875 l -1.9482,-2.29702 0.36794,-0.31264 c 0.20229,-0.17176 0.39748,-0.3355 0.43408,-0.3638 0.004,-0.003 0.008,-0.005 0.0134,-0.005 z m 4.95319,5.02916 0.3638,0.0269 c 0.20019,0.0146 0.44963,0.0368 0.55449,0.0496 l 0.19069,0.0232 2.22208,2.61586 c 1.22212,1.43861 2.24085,2.66997 2.26395,2.73627 0.0704,0.20198 0.0112,0.37122 -0.19741,0.56431 -0.32805,0.30361 -1.70549,1.46003 -1.79679,1.50843 -0.12482,0.0662 -0.29199,0.0571 -0.44183,-0.0238 -0.17445,-0.0942 -4.57773,-5.28588 -4.55373,-5.36918 0.01,-0.0338 0.0303,-0.26596 0.0455,-0.51573 0.0327,-0.53578 -0.0298,-0.44484 0.77308,-1.12655 z m -5.91643,0.68678 0.61288,0.61288 0.6134,0.6134 -0.0114,0.40979 -0.0114,0.41031 -1.01027,-1.01182 -1.00976,-1.01182 0.40824,-0.0114 z m -1.67897,0.60151 1.15135,1.15084 1.15083,1.15083 -2.1301,2.13269 c -1.17174,1.17323 -2.17922,2.15948 -2.23862,2.19108 -0.14741,0.0783 -0.30873,0.0715 -0.45217,-0.0186 -0.22635,-0.14219 -1.813,-1.77776 -1.8433,-1.90014 -0.0678,-0.27391 -0.0614,-0.28116 2.20245,-2.5461 z" /></g><style
     type="text/css"
     id="style3254">
	.st0{fill:#000000;}
</style></svg>
