<?xml version="1.0" encoding="UTF-8" standalone="no"?>
<!-- Created with Inkscape (http://www.inkscape.org/) -->

<svg
   width="120.97257"
   height="120.94482"
   viewBox="0 0 32.007326 31.999984"
   version="1.1"
   id="svg2298"
   inkscape:version="1.2.1 (9c6d41e, 2022-07-14)"
   sodipodi:docname="jhsar.com.br template 2.svg"
   xml:space="preserve"
   inkscape:export-filename="jhsar.com.br template 2.png"
   inkscape:export-xdpi="96"
   inkscape:export-ydpi="96"
   xmlns:inkscape="http://www.inkscape.org/namespaces/inkscape"
   xmlns:sodipodi="http://sodipodi.sourceforge.net/DTD/sodipodi-0.dtd"
   xmlns="http://www.w3.org/2000/svg"
   xmlns:svg="http://www.w3.org/2000/svg"><sodipodi:namedview
     id="namedview2300"
     pagecolor="#ffffff"
     bordercolor="#000000"
     borderopacity="0.25"
     inkscape:showpageshadow="2"
     inkscape:pageopacity="0.0"
     inkscape:pagecheckerboard="0"
     inkscape:deskcolor="#d1d1d1"
     inkscape:document-units="mm"
     showgrid="false"
     inkscape:zoom="0.9005232"
     inkscape:cx="534.68917"
     inkscape:cy="3468.5392"
     inkscape:window-width="1511"
     inkscape:window-height="961"
     inkscape:window-x="217"
     inkscape:window-y="226"
     inkscape:window-maximized="0"
     inkscape:current-layer="layer3"
     inkscape:lockguides="false" /><defs
     id="defs2295" /><g
     inkscape:groupmode="layer"
     id="layer3"
     inkscape:label="Content"
     transform="translate(-23.64713,-393.64472)"><path
       style="fill:#ff5d1a;fill-opacity:1;stroke-width:0.0400201"
       d="m 52.697994,418.04433 c 0,6.75995 -0.0046,7.25584 -0.06828,7.36364 -0.151619,0.25667 0.929073,0.23702 -12.984335,0.23603 -11.611752,-6.8e-4 -12.671268,-0.006 -12.792467,-0.066 v 2e-5 c -0.255783,-0.12606 -0.248048,-0.0407 -0.248048,-2.73648 v -10.57931 -5.86695 h -1.282632 c -1.417336,0 -1.449866,-0.006 -1.600438,-0.25207 -0.09788,-0.16052 -0.09957,-0.33313 -0.0048,-0.4883 0.04064,-0.0665 0.75434,-0.63588 1.600656,-1.27692 l 9.761462,-7.41011 c 4.717348,-3.5781 4.360537,-3.31901 4.570602,-3.31901 0.139446,0 0.223401,0.0265 0.324975,0.10253 0.07532,0.0564 3.602068,2.73073 7.837204,5.943 4.568476,3.46507 7.730148,5.88928 7.773762,5.96052 0.139029,0.22706 0.06125,0.51591 -0.178257,0.66195 -0.120067,0.0732 -0.209279,0.0781 -1.418772,0.0783 l -1.29065,1.5e-4 v 1.02435 m -0.960483,-0.31989 c 0,-0.92798 0.01422,-1.37198 0.04619,-1.44215 0.100028,-0.21954 0.185905,-0.24086 1.057105,-0.26257 l 0.803143,-0.02 -6.961963,-5.28266 c -3.829079,-2.90546 -6.992829,-5.28266 -7.030555,-5.28266 -0.03773,0 -3.201613,2.3772 -7.030856,5.28266 l -6.962261,5.28266 0.816615,0.02 0.816615,0.02 0.136905,0.14948 0.136903,0.14949 v 6.20772 10.59638 2.12635 h 12.086079 12.086082 v -6.90546 M 36.840936,402.74911 c -1.24136,-0.10489 -2.465193,0.14115 -3.612757,0.71477 -1.930455,0.96495 -3.277469,2.71974 -3.743377,4.87657 -0.108842,0.50386 -0.149831,1.6016 -0.08088,2.16618 0.251458,2.05914 1.362495,3.87178 3.075071,5.01696 1.150216,0.76914 2.439165,1.15629 3.85075,1.15664 2.275286,5.6e-4 4.366325,-1.07362 5.692931,-2.9245 1.686325,-2.35277 1.717397,-5.52636 0.114895,-7.93333 -1.260987,-1.89403 -3.332269,-2.90732 -5.296629,-3.07329 z m 6.984372,4.16638 c 0.39267,1.05174 0.573237,2.37198 0.47072,3.44173 -0.153478,1.60153 -0.668056,2.91805 -1.67216,4.27813 -0.04259,0.0577 0.113467,0.22894 1.183853,1.2989 l 1.232914,1.23244 0.207933,-0.068 c 0.152468,-0.0498 0.296869,-0.0634 0.541346,-0.0505 0.604209,0.0317 0.5421,-0.0178 2.797843,2.22933 1.096069,1.09187 2.044583,2.06626 2.107808,2.16531 0.538855,0.84418 0.101965,2.01113 -0.847572,2.2639 -0.258259,0.0687 -0.59717,0.0692 -0.811862,0.002 v -2.2e-4 c -0.405825,-0.12868 -0.504922,-0.21662 -2.545803,-2.25902 -1.781804,-1.78313 -2.039037,-2.05594 -2.137687,-2.26717 -0.146306,-0.31327 -0.178439,-0.74408 -0.0806,-1.08064 l 0.06785,-0.23341 -1.212074,-1.21256 -1.212075,-1.21257 -0.107505,0.0887 c -0.05913,0.0488 -0.230932,0.19457 -0.38179,0.32397 -0.920299,0.78941 -2.227822,1.41166 -3.546624,1.68785 -0.613387,0.12845 -1.658447,0.173 -2.36046,0.10063 -1.531662,-0.15792 -3.006855,-0.76879 -4.213067,-1.74461 -2.303406,-1.86345 -3.386847,-4.92531 -2.779457,-7.85487 0.182263,-0.8791 0.656555,-2.0071 1.156076,-2.74947 1.365319,-2.0291 3.747387,-3.37416 6.195494,-3.44993 3.703159,-0.11461 6.688044,1.76982 7.946895,5.07075 z m 5.984496,15.66733 c 0.125294,-0.13672 0.134573,-0.1644 0.116871,-0.34863 l -0.01923,-0.20012 -1.979339,-1.97934 c -1.871233,-1.87123 -1.988428,-1.98056 -2.145762,-2.00166 -0.337928,-0.0454 -0.568136,0.15464 -0.568136,0.49348 v 0.19296 l 1.93097,1.93612 c 1.062036,1.06487 1.985,1.97125 2.051033,2.01417 0.190983,0.12415 0.44186,0.0804 0.613592,-0.10698 z"
       id="preinstall"
       sodipodi:nodetypes="cscsscccscsccsssssscccsscssscccccccccccssssssssscssscscsssccssscccsssssssscsscssscsss" /></g><style
     type="text/css"
     id="style3254">
	.st0{fill:#000000;}
</style></svg>
