<?xml version="1.0" encoding="UTF-8" standalone="no"?>
<!-- Created with Inkscape (http://www.inkscape.org/) -->

<svg
   width="223.79617"
   height="120.94638"
   viewBox="0 0 59.212737 32.000396"
   version="1.1"
   id="svg2298"
   inkscape:version="1.2.1 (9c6d41e, 2022-07-14)"
   sodipodi:docname="jhsar.com.br template 2.svg"
   xml:space="preserve"
   inkscape:export-filename="jhsar.com.br template 2.png"
   inkscape:export-xdpi="96"
   inkscape:export-ydpi="96"
   xmlns:inkscape="http://www.inkscape.org/namespaces/inkscape"
   xmlns:sodipodi="http://sodipodi.sourceforge.net/DTD/sodipodi-0.dtd"
   xmlns="http://www.w3.org/2000/svg"
   xmlns:svg="http://www.w3.org/2000/svg"><sodipodi:namedview
     id="namedview2300"
     pagecolor="#ffffff"
     bordercolor="#000000"
     borderopacity="0.25"
     inkscape:showpageshadow="2"
     inkscape:pageopacity="0.0"
     inkscape:pagecheckerboard="0"
     inkscape:deskcolor="#d1d1d1"
     inkscape:document-units="mm"
     showgrid="false"
     inkscape:zoom="0.9005232"
     inkscape:cx="534.68917"
     inkscape:cy="3468.5392"
     inkscape:window-width="1511"
     inkscape:window-height="961"
     inkscape:window-x="217"
     inkscape:window-y="226"
     inkscape:window-maximized="0"
     inkscape:current-layer="layer3"
     inkscape:lockguides="false" /><defs
     id="defs2295" /><g
     inkscape:groupmode="layer"
     id="layer3"
     inkscape:label="Content"
     transform="translate(-234.87414,-344.25253)"><path
       id="prevent"
       style="fill:#ff5d1a;fill-opacity:1;stroke-width:0.0752356"
       d="m 250.27423,344.25558 c -4.17528,0.0389 -8.35535,-0.0577 -12.52744,0.0996 -1.73059,0.44978 -3.03657,2.22821 -2.83466,4.02932 -0.0341,4.67091 -0.0781,9.34476 0.0333,14.01441 0.2499,1.4683 1.49212,2.78922 2.96373,3.04886 9.06262,0.14358 18.12812,0.0929 27.19197,0.11609 8.6465,-0.0214 17.29445,0.0238 25.93982,-0.11166 1.80819,-0.30491 3.20906,-2.14772 3.02132,-3.98257 0.0322,-4.68186 0.0474,-9.36612 -0.0487,-14.04687 -0.22143,-1.43789 -1.39222,-2.76601 -2.83453,-3.07263 -4.736,-0.15161 -9.4789,-0.0603 -14.21765,-0.095 -8.89572,-0.004 -17.79145,-0.003 -26.68717,4.3e-4 z m -12.16216,0.72089 c 17.61753,0 35.23505,0 52.85257,0 1.07032,0.39774 2.04693,1.23316 2.33038,2.36248 -0.0119,4.94182 0.0854,9.88605 -0.0134,14.82641 -0.10001,1.53913 -1.62603,2.75248 -3.14336,2.65276 -4.04634,0.0923 -8.09498,0.0265 -12.14224,0.0485 -0.026,-2.21861 0.0609,-4.44643 -0.0803,-6.6592 -0.32853,-0.41249 -1.03889,-0.0806 -1.52027,-0.18736 -11.41575,0.0186 -22.83201,-0.0412 -34.24741,0.0408 -0.48136,1.4e-4 -1.13407,-0.0934 -0.90849,0.60899 -0.0399,2.05116 -0.0633,4.10256 -0.0869,6.15396 -1.40453,-0.0785 -3.00977,0.34741 -4.22535,-0.57277 -0.89698,-0.60264 -1.36106,-1.67951 -1.26447,-2.74591 -0.024,-4.59315 -0.0638,-9.18884 0.0239,-13.78089 0.009,-1.35276 1.2217,-2.39855 2.42531,-2.74779 z m 3.5134,4.33954 c -0.39163,0.33807 0.19699,0.75603 0.55671,0.58884 14.34032,-0.0165 28.68091,0.0352 43.02105,-0.0315 0.94851,-0.019 1.90181,-0.006 2.84578,-0.10583 0.2677,-0.59855 -0.55574,-0.43603 -0.90414,-0.47506 -7.44156,-0.13972 -14.88584,-0.0447 -22.32851,-0.0745 -7.69699,-2e-5 -15.39398,0 -23.09097,0 l -0.0651,0.064 z m 12.04974,3.89345 c -4.03063,0.0238 -8.0634,-0.0228 -12.09257,0.0749 -0.28625,0.43539 0.19952,0.67929 0.58915,0.54374 15.2446,0.0778 30.48968,0.0248 45.73448,0.0272 0.4443,-0.23611 0.055,-0.85246 -0.37793,-0.65129 -11.28438,5e-4 -22.56876,-0.003 -33.85313,0.005 z m -11.30924,5.4976 c 11.6221,0 23.24419,0 34.86629,0 -10e-6,1.97767 0,3.95532 0,5.93298 -11.78328,0 -23.56657,0 -35.34985,0 0,-1.97766 0,-3.95531 0,-5.93298 0.16119,0 0.32237,0 0.48356,0 z m 45.29584,1.20622 c -0.75002,0.009 -0.88505,1.17133 -0.15223,1.34722 0.66565,0.3058 1.26919,-0.81573 0.61795,-1.21517 -0.13152,-0.0997 -0.30146,-0.14771 -0.46572,-0.13205 z m -5.14965,0.0125 c -0.74012,0.16455 -0.66128,1.28927 0.0839,1.39179 0.63754,0.0471 1.07896,-0.83716 0.51746,-1.26332 -0.15899,-0.13968 -0.40037,-0.15094 -0.60133,-0.12847 z m -8.34364,8.63449 c -0.449,0.0462 0.21946,0.45865 0.26052,0.68341 0.68549,1.03069 0.21985,2.31079 -0.41053,3.23978 -0.50988,0.89816 -1.39221,2.04141 -0.6617,3.06635 0.27565,0.36062 0.6403,0.88161 1.16322,0.63858 -0.6158,-0.62313 -0.94736,-1.58176 -0.49476,-2.39529 0.46164,-1.28544 1.74605,-2.38337 1.45247,-3.85342 -0.22214,-0.55264 -0.5749,-1.2925 -1.22357,-1.38476 z m -21.51932,0.002 c -0.45704,0.0703 0.33053,0.51693 0.33368,0.79403 0.6262,1.11043 0.0346,2.35745 -0.58681,3.31974 -0.53151,0.85301 -1.2638,2.01725 -0.49629,2.96476 0.2732,0.33346 0.61652,0.78258 1.10451,0.54602 -0.70596,-0.65132 -0.87434,-1.72643 -0.43069,-2.57198 0.51075,-1.21118 1.72799,-2.32268 1.37462,-3.74464 -0.26046,-0.50562 -0.62428,-1.36422 -1.29902,-1.30793 z m 7.18203,0.007 c -0.45604,0.0279 0.17713,0.40533 0.21769,0.62274 0.61212,0.83058 0.43977,1.93556 -0.0786,2.76435 -0.43412,0.97588 -1.37262,1.8755 -1.20543,3.01637 0.16838,0.61499 0.69194,1.48122 1.44101,1.20681 -0.87768,-0.69992 -0.85642,-1.98207 -0.30605,-2.87547 0.55115,-1.11585 1.68063,-2.29378 1.14113,-3.62672 -0.26218,-0.4312 -0.61728,-1.17345 -1.2098,-1.10808 z m -14.50501,0.0268 c 0.11418,0.3177 0.57758,0.77223 0.66556,1.22764 0.43142,1.4833 -0.81451,2.68695 -1.36303,3.94436 -0.548,0.82946 -0.12068,1.92361 0.65464,2.424 0.59044,0.19693 0.56472,-0.14955 0.18378,-0.49784 -0.55532,-0.73327 -0.33727,-1.68262 0.10494,-2.40761 0.55025,-1.06864 1.51064,-2.1206 1.18968,-3.41673 -0.14116,-0.51824 -0.56637,-1.01912 -0.99341,-1.27917 -0.14744,-0.002 -0.29479,0.002 -0.44216,0.005 z m 21.54964,0.002 c -0.0762,0.19166 0.44278,0.59401 0.51463,0.93277 0.62491,1.26379 -0.29239,2.51262 -0.89805,3.57609 -0.43913,0.7159 -0.91892,1.68382 -0.30035,2.44655 0.22966,0.4062 0.63772,0.85261 1.15128,0.62811 -0.65271,-0.62335 -0.91733,-1.61561 -0.47851,-2.43602 0.4523,-1.18789 1.54049,-2.17732 1.47953,-3.52195 -0.0799,-0.65348 -0.49847,-1.2457 -1.01173,-1.62733 -0.15245,-0.005 -0.30444,-0.008 -0.4568,0.002 z" /></g><style
     type="text/css"
     id="style3254">
	.st0{fill:#000000;}
</style></svg>
