<?xml version="1.0" encoding="UTF-8" standalone="no"?>
<!-- Created with Inkscape (http://www.inkscape.org/) -->

<svg
   width="120.99043"
   height="120.94418"
   viewBox="0 0 32.01205 31.999812"
   version="1.1"
   id="svg2298"
   inkscape:version="1.2.1 (9c6d41e, 2022-07-14)"
   sodipodi:docname="jhsar.com.br template 2.svg"
   xml:space="preserve"
   inkscape:export-filename="jhsar.com.br template 2.png"
   inkscape:export-xdpi="96"
   inkscape:export-ydpi="96"
   xmlns:inkscape="http://www.inkscape.org/namespaces/inkscape"
   xmlns:sodipodi="http://sodipodi.sourceforge.net/DTD/sodipodi-0.dtd"
   xmlns="http://www.w3.org/2000/svg"
   xmlns:svg="http://www.w3.org/2000/svg"><sodipodi:namedview
     id="namedview2300"
     pagecolor="#ffffff"
     bordercolor="#000000"
     borderopacity="0.25"
     inkscape:showpageshadow="2"
     inkscape:pageopacity="0.0"
     inkscape:pagecheckerboard="0"
     inkscape:deskcolor="#d1d1d1"
     inkscape:document-units="mm"
     showgrid="false"
     inkscape:zoom="0.9005232"
     inkscape:cx="534.68917"
     inkscape:cy="3468.5392"
     inkscape:window-width="1511"
     inkscape:window-height="961"
     inkscape:window-x="217"
     inkscape:window-y="226"
     inkscape:window-maximized="0"
     inkscape:current-layer="layer3"
     inkscape:lockguides="false" /><defs
     id="defs2295" /><g
     inkscape:groupmode="layer"
     id="layer3"
     inkscape:label="Content"
     transform="translate(-23.642406,-489.9519)"><path
       id="split"
       style="fill:#ff5d1a;fill-opacity:1;stroke-width:0.0409191"
       d="m 25.298914,490.06447 c -1.069959,0.3481 -1.800488,1.48885 -1.632465,2.60604 0,9.10869 0,18.21738 0,27.32607 0.237156,1.14887 1.36841,2.10284 2.566566,1.93613 9.165231,0.0214 18.330506,0.005 27.495755,0.005 1.156063,-0.27336 2.081766,-1.41891 1.903647,-2.62859 0,-9.11996 1e-6,-18.23994 0,-27.35989 -0.211557,-1.17972 -1.37933,-2.14946 -2.592343,-1.97749 -9.155316,0 -18.310633,0 -27.46595,0 -0.09174,0.0309 -0.183473,0.0617 -0.27521,0.0926 z m 0.499406,0.98002 c 9.265847,1e-5 18.531696,0 27.797544,0 0.61673,0.23881 1.06563,0.8574 0.951816,1.53602 0.04121,8.7242 0.02602,17.44889 -0.0041,26.17317 -0.03402,0.64872 0.136895,1.48187 -0.515495,1.88595 -0.506325,0.41061 -1.195551,0.1559 -1.793294,0.22618 -8.831849,-0.003 -17.663858,0.0272 -26.495601,-0.0181 -0.718028,-0.14052 -1.090784,-0.89758 -0.992122,-1.57981 -0.03713,-8.4312 -0.0386,-16.86283 -0.01203,-25.29407 0.05351,-0.77591 -0.08785,-1.5985 0.17852,-2.33999 0.21539,-0.27936 0.541792,-0.52416 0.8847,-0.58936 z m 13.112074,2.59235 c -4.319397,0.21824 -8.39313,2.91922 -10.306276,6.79433 -0.760924,1.52482 -1.274525,3.32433 -1.285389,5.08426 -0.124807,2.86511 0.822506,5.74089 2.574177,8.00498 0.654493,0.84132 1.51632,1.70851 2.424532,2.37354 2.970022,2.20731 6.886082,2.9497 10.46469,2.00432 3.784025,-0.96567 6.995437,-3.85315 8.387861,-7.49779 0.513356,-1.35848 0.862881,-2.92729 0.815289,-4.43584 0.01669,-1.467 -0.266826,-2.99379 -0.772329,-4.3145 -1.249321,-3.40217 -4.16025,-6.27056 -7.657784,-7.39859 -1.49113,-0.52201 -3.07128,-0.69132 -4.644771,-0.61471 z m 0.759848,1.06459 c 3.399008,-0.0322 6.740367,1.61226 8.818733,4.29715 2.783971,3.43029 3.205791,8.55504 1.017852,12.39416 -1.861361,3.4244 -5.599997,5.73491 -9.503602,5.81452 -3.205218,0.12212 -6.429477,-1.21502 -8.589456,-3.59168 -2.106754,-2.2056 -3.204555,-5.32194 -2.987548,-8.3619 0.0986,-2.58038 1.233348,-5.08717 2.987118,-6.96759 2.099352,-2.27262 5.157469,-3.62497 8.256903,-3.58466 z m -0.386637,2.03387 c -0.912648,0.0621 -1.704401,0.4322 -2.341298,1.09547 -0.712821,0.70764 -0.697648,1.8038 -0.365709,2.68771 0.222345,0.81797 0.60803,1.57709 0.921499,2.3587 0.07187,0.57609 -0.302838,0.49345 -0.726536,0.34016 -1.373777,-0.32256 -2.825951,-0.62184 -4.254092,-0.48784 -1.657841,0.48578 -2.379452,2.4793 -2.016273,4.05563 0.223686,1.29956 1.356019,2.66038 2.787692,2.46525 1.338185,-0.19443 2.535126,-0.86065 3.790353,-1.32008 -0.210518,1.1442 -0.543621,2.26556 -0.643568,3.43075 -0.10641,0.8162 -0.228618,1.75486 0.328773,2.48539 1.361174,1.87378 4.630818,1.78779 5.88209,-0.16625 0.647316,-1.0132 0.100721,-2.22077 -0.248826,-3.23578 -0.181085,-0.57624 -0.570706,-1.09125 -0.602311,-1.70592 0.565438,-0.24102 1.122402,0.15571 1.694823,0.20274 1.028683,0.19188 2.082772,0.35427 3.130077,0.30471 1.654298,-0.35441 2.480065,-2.26254 2.227354,-3.81845 -0.155905,-1.25083 -1.026703,-2.64377 -2.388874,-2.73984 -1.155094,-0.0188 -2.236319,0.50412 -3.279275,0.94401 -0.275282,0.10811 -0.793902,0.38051 -0.949852,0.29224 0.316867,-1.66452 0.810608,-3.30877 0.681697,-5.01009 -0.352277,-1.50108 -2.025619,-2.31293 -3.472807,-2.18023 -0.05165,5.8e-4 -0.103291,9.9e-4 -0.154937,0.002 z m 0.426912,1.07667 c 0.880889,0.001 1.99883,0.43532 2.150751,1.40698 0.0053,1.49859 -0.300535,2.99969 -0.78586,4.41393 -0.09145,0.3101 -0.38911,0.64849 -0.717933,0.40884 -0.307094,-0.15574 -0.714352,-0.0752 -0.988119,-0.22451 -0.87651,-1.3059 -1.60226,-2.75764 -1.909645,-4.30765 -0.1363,-1.1667 1.289935,-1.74651 2.250806,-1.69759 z m -6.541942,5.93782 c 1.497247,0.0665 3.011249,0.32729 4.404702,0.88604 0.468429,0.17549 0.04708,0.70214 0.05125,1.05006 0.01789,0.73589 -0.791291,0.9748 -1.302757,1.29985 -1.020021,0.51181 -2.080791,1.03507 -3.220563,1.19474 -0.984807,0.005 -1.551304,-1.08439 -1.572203,-1.95792 -0.113732,-0.9524 0.28343,-2.15067 1.282471,-2.44995 0.118264,-0.0221 0.237292,-0.0212 0.357101,-0.0228 z m 13.117445,0.009 c 0.96137,0.0744 1.475654,1.1482 1.498202,2.01529 0.05496,0.91563 -0.293808,2.10085 -1.276692,2.36928 -1.019478,0.11726 -2.045597,-0.13072 -3.044478,-0.31412 -0.642184,-0.18908 -1.363335,-0.26246 -1.906615,-0.68067 -0.124045,-0.43727 0.215477,-0.86348 0.173522,-1.32225 0.151905,-0.32107 0.622362,-0.45091 0.90718,-0.68074 1.142305,-0.59985 2.333403,-1.22176 3.627401,-1.38679 z m -6.67082,1.22704 c 0.806833,-0.0656 1.323628,0.99989 0.779985,1.59218 -0.479092,0.6087 -1.547367,0.34863 -1.691534,-0.41751 -0.141355,-0.56012 0.332255,-1.17317 0.911549,-1.17467 z m -0.835028,2.84607 c 0.349198,0.14783 0.725273,0.19838 1.102183,0.17452 0.898694,1.3247 1.629923,2.79853 1.972114,4.36846 0.123813,0.9356 -0.854796,1.54015 -1.658411,1.69408 -0.301718,0.0802 -0.618637,0.0286 -0.98276,-10e-5 -0.866592,-0.10061 -1.885431,-0.73288 -1.7689,-1.72485 0.0859,-1.43361 0.292302,-2.89364 0.841739,-4.22885 0.15013,-0.26566 0.137636,-0.49453 0.494035,-0.28326 z" /></g><style
     type="text/css"
     id="style3254">
	.st0{fill:#000000;}
</style></svg>
