<?xml version="1.0" encoding="UTF-8" standalone="no"?>
<!-- Created with Inkscape (http://www.inkscape.org/) -->

<svg
   width="135.54649"
   height="120.94492"
   viewBox="0 0 35.863343 32.000008"
   version="1.1"
   id="svg2298"
   inkscape:version="1.2.1 (9c6d41e, 2022-07-14)"
   sodipodi:docname="jhsar.com.br template 2.svg"
   xml:space="preserve"
   inkscape:export-filename="jhsar.com.br template 2.png"
   inkscape:export-xdpi="96"
   inkscape:export-ydpi="96"
   xmlns:inkscape="http://www.inkscape.org/namespaces/inkscape"
   xmlns:sodipodi="http://sodipodi.sourceforge.net/DTD/sodipodi-0.dtd"
   xmlns="http://www.w3.org/2000/svg"
   xmlns:svg="http://www.w3.org/2000/svg"><sodipodi:namedview
     id="namedview2300"
     pagecolor="#ffffff"
     bordercolor="#000000"
     borderopacity="0.25"
     inkscape:showpageshadow="2"
     inkscape:pageopacity="0.0"
     inkscape:pagecheckerboard="0"
     inkscape:deskcolor="#d1d1d1"
     inkscape:document-units="mm"
     showgrid="false"
     inkscape:zoom="0.9005232"
     inkscape:cx="534.68917"
     inkscape:cy="3468.5392"
     inkscape:window-width="1511"
     inkscape:window-height="961"
     inkscape:window-x="217"
     inkscape:window-y="226"
     inkscape:window-maximized="0"
     inkscape:current-layer="layer3"
     inkscape:lockguides="false" /><defs
     id="defs2295" /><g
     inkscape:groupmode="layer"
     id="layer3"
     inkscape:label="Content"
     transform="translate(-258.22353,-538.60494)"><path
       id="vrf"
       style="fill:#ff5d1a;fill-opacity:1;stroke-width:0.241228"
       d="m 291.80025,538.60978 c -0.19864,-0.0221 -0.30728,0.16406 -0.28336,0.34215 0.0103,0.30122 -0.0191,0.71607 -0.37726,0.80126 -0.43043,0.098 -0.87773,0.0402 -1.31528,0.0567 0,1.33955 0,2.67909 0,4.01864 1.41991,0 2.83982,0 4.25974,0 0,-1.33954 0,-2.67909 0,-4.01864 -0.46569,-0.0269 -0.95568,0.0664 -1.4042,-0.0907 -0.35198,-0.16819 -0.2578,-0.60672 -0.30318,-0.91976 -0.0415,-0.26307 -0.39156,-0.17929 -0.57646,-0.18965 z m -33.5766,16.59734 c 0,5.13262 0,10.26522 0,15.39783 2.14359,0 4.28719,0 6.43078,0 0.0156,-1.63037 -0.0399,-3.26319 0.0517,-4.89171 0.0438,-0.27896 0.0134,-0.65219 0.28068,-0.82294 0.28969,-0.10629 0.437,0.2491 0.47236,0.47794 0.18889,1.05106 0.16537,2.12626 0.20487,3.1902 0.0165,0.68218 0.0331,1.36434 0.0496,2.04651 2.05546,0 4.11094,0 6.16641,0 0.0552,-1.58319 0.0306,-3.17146 0.1777,-4.74991 0.0526,-0.31754 0.0478,-0.7006 0.29733,-0.93491 0.2175,-0.16203 0.44723,0.0892 0.46394,0.3082 0.14781,0.84458 0.10086,1.70916 0.11941,2.56321 6.2e-4,0.93781 1e-4,1.87562 2.9e-4,2.81341 2.14359,0 4.28718,0 6.43077,0 0.0147,-1.62025 -0.0377,-3.24266 0.0489,-4.86128 0.0458,-0.28809 0.009,-0.67465 0.28347,-0.85337 0.2898,-0.1062 0.43617,0.24921 0.47235,0.47794 0.18875,1.05128 0.16571,2.12664 0.20475,3.19081 0.0164,0.68197 0.0328,1.36394 0.0491,2.0459 2.05548,0 4.11095,0 6.16641,0 0.0455,-1.88798 0.091,-3.77595 0.13607,-5.66394 1.33044,-0.0267 2.66116,-0.11943 3.9919,-0.0819 0.29165,0.0189 0.72384,0.0425 0.78524,0.40185 -0.0265,0.27115 0.32032,0.28328 0.51465,0.27769 0.15608,0.0239 0.32609,-0.0429 0.32262,-0.22577 0.0858,-0.79016 0.0407,-1.58885 0.0448,-2.38251 -0.0228,-0.2947 0.0316,-0.62988 -0.1266,-0.89018 -0.23959,-0.0635 -0.5424,-0.0632 -0.75192,0.077 -0.0808,0.28263 -0.4489,0.25831 -0.68461,0.29765 -1.29206,0.0844 -2.58698,-0.0276 -3.87975,-0.048 -0.23229,0.0601 -0.24417,-0.095 -0.22104,-0.28469 -0.0424,-4.71751 -0.0859,-9.435 -0.12839,-14.1525 1.38994,0.0199 2.78434,-0.0528 4.17067,0.0714 0.24668,0.0497 0.57835,0.0222 0.73237,0.25802 0.0615,0.16225 0.31289,0.13322 0.46011,0.15276 0.16674,0.0175 0.38941,-0.007 0.38432,-0.22617 0.0858,-0.79016 0.0407,-1.58885 0.0448,-2.3825 -0.023,-0.29486 0.032,-0.63071 -0.12718,-0.89078 -0.24028,-0.0619 -0.53643,-0.0617 -0.75194,0.071 -0.085,0.26251 -0.42865,0.24609 -0.6546,0.29166 -1.33716,0.14018 -2.68489,0.0622 -4.02682,0.0831 -0.23604,0.0669 -0.24934,-0.0889 -0.22341,-0.28394 0,-1.75474 0,-3.50949 0,-5.26422 -2.06323,0 -4.12646,0 -6.18969,0 -0.0149,1.54549 0.0368,3.0931 -0.0448,4.63704 -0.0412,0.30706 -0.0236,0.73182 -0.34719,0.88683 -0.28481,0.11712 -0.52513,-0.16647 -0.54884,-0.43098 -0.14019,-0.85885 -0.0887,-1.73585 -0.10593,-2.60305 0,-0.82995 0,-1.65989 0,-2.48984 -2.1438,0 -4.28758,0 -6.43137,0 -0.0149,1.54549 0.0368,3.0931 -0.0447,4.63704 -0.0412,0.30706 -0.0236,0.73182 -0.34719,0.88683 -0.28481,0.11712 -0.52515,-0.16647 -0.54883,-0.43098 -0.1402,-0.85885 -0.0887,-1.73585 -0.10593,-2.60305 0,-0.82995 0,-1.65989 0,-2.48984 -2.06323,0 -4.12647,0 -6.18969,0 -0.0144,1.54568 0.036,3.09349 -0.0451,4.63761 -0.0416,0.30695 -0.0235,0.73155 -0.34742,0.88626 -0.28494,0.11726 -0.52517,-0.16649 -0.54884,-0.43098 -0.14017,-0.85885 -0.0887,-1.73585 -0.10593,-2.60305 0,-0.82995 0,-1.65989 0,-2.48984 -2.14359,0 -4.28719,0 -6.43078,0 0,5.13241 0,10.26482 0,15.39723 z m 13.02627,-14.61248 c -0.0207,0.57225 0.0485,1.15435 -0.0561,1.71988 -0.0625,0.32137 -0.42052,0.41276 -0.70359,0.39029 -0.18722,-0.0133 -0.47533,0.0305 -0.44381,0.28118 -0.0428,0.18516 0.0835,0.36915 0.2827,0.35137 0.33338,6.1e-4 0.80081,0.0355 0.90708,0.42074 0.0919,0.32812 -0.22765,0.60167 -0.53358,0.61721 -0.20961,0.0565 -0.55239,-0.0619 -0.64504,0.19858 -0.0483,0.18482 -0.005,0.46073 0.24117,0.44765 0.31567,0.0281 0.63431,0.006 0.95117,0.013 0,6.78188 0,13.56376 0,20.34564 -0.36797,0.0243 -0.75484,-0.0568 -1.1094,0.0585 -0.13952,0.11932 -0.13381,0.39886 -0.004,0.52215 0.31368,0.11938 0.71905,-0.008 0.9787,0.26139 0.26455,0.24176 0.1081,0.7055 -0.22856,0.78476 -0.25175,0.11879 -0.57852,-0.0189 -0.79728,0.1665 -0.0939,0.1862 -0.069,0.53494 0.20954,0.52344 0.2998,0.027 0.71877,-0.0318 0.86524,0.30905 0.15046,0.45296 0.0595,0.94424 0.0859,1.41291 0.0208,0.19619 0.026,0.37687 -0.22284,0.3034 -1.56126,0 -3.12252,0 -4.6838,0 0.0224,-0.54511 -0.052,-1.10108 0.0567,-1.63873 0.0795,-0.33984 0.47173,-0.39111 0.76347,-0.37561 0.25398,0.0187 0.53836,-0.26177 0.3519,-0.50343 -0.22087,-0.25826 -0.61976,-0.15322 -0.87428,-0.36701 -0.25349,-0.13215 -0.33968,-0.53026 -0.0668,-0.68988 0.28568,-0.2249 0.75329,0.005 0.97095,-0.3318 0.13754,-0.27354 -0.1954,-0.48411 -0.43605,-0.4859 -0.2147,-0.0306 -0.42941,-0.0611 -0.64411,-0.0918 -0.0437,-6.73453 -0.0854,-13.46907 -0.1283,-20.20361 0.37077,-0.0253 0.76167,0.0588 1.11835,-0.0603 0.13326,-0.12193 0.13524,-0.3998 -6.1e-4,-0.52158 -0.31306,-0.11748 -0.71525,0.008 -0.97513,-0.25841 -0.26634,-0.2409 -0.11101,-0.7071 0.22679,-0.78654 0.25171,-0.11953 0.58044,0.0204 0.79788,-0.16768 0.0868,-0.17664 0.0779,-0.51243 -0.18482,-0.51762 -0.30016,-0.0493 -0.73322,0.0611 -0.8951,-0.28052 -0.13398,-0.39988 -0.008,-0.83211 6.1e-4,-1.24301 0.0172,-0.20742 0.0345,-0.41483 0.0517,-0.62224 1.59118,-0.05 3.18239,-0.0987 4.77356,-0.14919 0,0.0557 0,0.1114 0,0.1671 z M 259.268,540.45141 c 1.50127,0 3.00253,0 4.50381,0 -0.0201,0.60906 0.0474,1.22638 -0.0531,1.82969 -0.0433,0.29319 -0.33893,0.45331 -0.61653,0.42547 -0.31099,-0.0387 -0.3801,0.39881 -0.20701,0.57949 0.22219,0.10598 0.51915,0.0256 0.70581,0.22834 0.28733,0.21491 0.18186,0.68611 -0.14187,0.80526 -0.19024,0.1335 -0.52571,-0.0204 -0.62959,0.23275 -0.0726,0.20105 10e-4,0.51338 0.26983,0.47997 0.22394,-0.0339 0.44695,0.14153 0.48449,0.37341 0.1638,0.76488 0.12873,1.55567 0.16095,2.33348 0.0435,3.89112 0.0238,7.7827 0.0229,11.67399 -0.0163,1.6841 0.0198,3.37165 -0.0976,5.05258 -0.0446,0.30097 -0.028,0.7016 -0.32493,0.87679 -0.17314,0.0791 -0.47036,-0.0291 -0.52226,0.22676 -0.0646,0.19805 0.0244,0.48357 0.27769,0.45044 0.34832,-0.0289 0.76655,0.2714 0.65277,0.65122 -0.0951,0.31455 -0.45157,0.40883 -0.74348,0.41043 -0.25621,0.0395 -0.26524,0.44864 -0.092,0.58437 0.22897,0.0831 0.54259,-9.9e-4 0.70179,0.23811 0.22786,0.36805 0.1255,0.82988 0.15218,1.23997 0,0.1928 0,0.3856 0,0.57839 -1.55517,0 -3.11036,0 -4.66554,0 0.0216,-0.54079 -0.0513,-1.09219 0.0579,-1.62559 0.0608,-0.29262 0.37129,-0.4121 0.64167,-0.39021 0.30303,0.0164 0.34958,-0.44529 0.15204,-0.59506 -0.23933,-0.072 -0.53626,-0.0268 -0.71673,-0.24408 -0.25762,-0.2379 -0.11352,-0.6831 0.20553,-0.78378 0.18788,-0.11766 0.54054,0.0296 0.60774,-0.24853 0.0656,-0.19807 -0.0223,-0.48624 -0.2769,-0.45317 -0.24468,0.0379 -0.45712,-0.16474 -0.49191,-0.40368 -0.1587,-0.81712 -0.12638,-1.65727 -0.15488,-2.48597 -0.0396,-3.97263 -0.0223,-7.94565 -0.0193,-11.91845 0.0156,-1.56179 -0.0167,-3.12739 0.1027,-4.68562 0.0421,-0.29677 0.0412,-0.72511 0.38206,-0.83866 0.17483,-0.0206 0.45793,0.005 0.46906,-0.24766 0.0462,-0.19255 -0.0558,-0.4379 -0.28776,-0.40687 -0.34515,0.0272 -0.75783,-0.26294 -0.65633,-0.64107 0.0903,-0.3208 0.45148,-0.41963 0.74705,-0.42058 0.25418,-0.0413 0.26634,-0.44758 0.092,-0.58436 -0.23372,-0.0827 -0.56034,0.002 -0.71134,-0.25542 -0.21356,-0.39945 -0.11667,-0.87795 -0.14264,-1.31265 0,-0.24316 0,-0.48632 0,-0.7295 0.0539,0 0.10782,0 0.16173,0 z m 14.71512,0 c 1.50128,0 3.00254,0 4.50382,0 -0.0201,0.60903 0.0475,1.22653 -0.0537,1.82969 -0.0423,0.29363 -0.33858,0.45304 -0.61593,0.42547 -0.25878,-0.034 -0.34931,0.26497 -0.27601,0.46593 0.0827,0.26393 0.42009,0.11748 0.60776,0.23694 0.3182,0.10143 0.45869,0.54605 0.20243,0.78312 -0.18119,0.21701 -0.47822,0.1704 -0.71732,0.24408 -0.20533,0.15892 -0.13991,0.63494 0.17912,0.59569 0.23986,-0.0375 0.46043,0.16181 0.49273,0.40304 0.15729,0.79711 0.12621,1.61731 0.15503,2.42611 0.041,4.00317 0.0238,8.00676 0.0201,12.01009 -0.016,1.55165 0.0174,3.10705 -0.10227,4.65512 -0.042,0.29679 -0.0417,0.72518 -0.38239,0.83865 -0.17627,0.0213 -0.45689,-0.008 -0.46906,0.24765 -0.0467,0.19354 0.0587,0.43614 0.28834,0.40686 0.34822,-0.0292 0.76652,0.27188 0.65217,0.65122 -0.0943,0.31463 -0.45115,0.40887 -0.7429,0.41031 -0.2624,0.0403 -0.27383,0.48834 -0.0634,0.59882 0.24575,0.0487 0.57353,0.008 0.70956,0.27689 0.18894,0.42879 0.088,0.91633 0.11577,1.37018 -0.0355,0.14714 0.10573,0.47097 -0.15277,0.39507 -1.50426,0 -3.00851,0 -4.51277,0 0.022,-0.54079 -0.052,-1.09225 0.0579,-1.62559 0.0599,-0.29318 0.37158,-0.41191 0.64167,-0.39024 0.30689,0.0176 0.35506,-0.46954 0.13532,-0.60339 -0.2564,-0.0536 -0.57594,-0.0347 -0.74052,-0.2856 -0.23136,-0.27741 -0.003,-0.6986 0.32457,-0.76352 0.19169,-0.0588 0.52044,0.024 0.54008,-0.26496 0.0467,-0.19302 -0.0591,-0.43725 -0.28836,-0.40714 -0.24387,0.0376 -0.45612,-0.16418 -0.49091,-0.40242 -0.1576,-0.79706 -0.12532,-1.61739 -0.15491,-2.4261 -0.0401,-4.03376 -0.0229,-8.06788 -0.0193,-12.10177 0.0151,-1.51096 -0.0143,-3.02543 0.0992,-4.53302 0.0439,-0.30264 0.0334,-0.73234 0.3702,-0.86548 0.17866,-0.031 0.46847,0.0125 0.48398,-0.25124 0.0467,-0.19354 -0.0587,-0.43614 -0.28834,-0.40686 -0.34843,0.0291 -0.76603,-0.27162 -0.65217,-0.65121 0.0944,-0.31495 0.45095,-0.40842 0.7429,-0.41032 0.25394,-0.0412 0.26691,-0.44356 0.095,-0.58271 -0.23075,-0.0871 -0.54963,0.002 -0.70777,-0.24587 -0.22193,-0.40098 -0.12198,-0.88548 -0.14859,-1.32398 0,-0.24316 0,-0.48633 0,-0.7295 0.0539,0 0.10782,0 0.16173,0 z m 7.23641,0 c 1.58184,0 3.16368,0 4.74552,0 -0.0205,0.61518 0.0475,1.23867 -0.0513,1.8482 -0.0542,0.31562 -0.39695,0.42899 -0.67965,0.40381 -0.1923,-0.007 -0.50378,0.0119 -0.47252,0.28257 -0.0421,0.18528 0.0822,0.36847 0.28249,0.3515 0.33329,6.1e-4 0.80119,0.0351 0.90728,0.42061 0.0949,0.34229 -0.24963,0.61356 -0.5644,0.62221 -0.2022,0.0436 -0.53007,-0.057 -0.61421,0.19358 -0.0396,0.17185 -0.0207,0.44013 0.21218,0.44281 0.32685,0.0377 0.65809,0.009 0.98672,0.0179 -0.0434,6.73453 -0.0852,13.46908 -0.1289,20.20361 -0.33051,0.0782 -0.71169,0.0259 -1.00138,0.22617 -0.21614,0.15932 -0.0806,0.48879 0.16112,0.52814 0.2989,0.0577 0.70118,-0.006 0.87129,0.31331 0.1431,0.34587 -0.24081,0.61454 -0.53855,0.67678 -0.23055,0.0442 -0.57674,0.0875 -0.60128,0.3831 0.005,0.31568 0.38027,0.36563 0.62414,0.34946 0.28393,-0.0148 0.55763,0.18798 0.57618,0.48154 0.0589,0.50582 0.019,1.01739 0.0308,1.52563 -1.63575,0 -3.2715,0 -4.90723,0 0.0227,-0.54823 -0.0534,-1.108 0.0597,-1.64828 0.0855,-0.33447 0.47216,-0.37933 0.76108,-0.36631 0.17672,0.0173 0.41286,-0.0603 0.38334,-0.27891 0.0422,-0.18318 -0.082,-0.36814 -0.2797,-0.35082 -0.33289,-6.2e-4 -0.80451,-0.0349 -0.91067,-0.42128 -0.0949,-0.34235 0.24952,-0.61393 0.56441,-0.62284 0.20797,-0.0414 0.57539,0.0599 0.62197,-0.23175 0.0408,-0.17758 -0.0223,-0.41905 -0.24476,-0.40822 -0.31698,-0.0293 -0.6371,-0.007 -0.95534,-0.0137 0,-6.78188 0,-13.56376 0,-20.34564 0.36748,-0.024 0.7539,0.0559 1.1082,-0.0579 0.13821,-0.11533 0.13076,-0.3717 0.0263,-0.50785 -0.28537,-0.1473 -0.6559,-0.006 -0.92601,-0.21617 -0.30702,-0.17975 -0.25755,-0.68283 0.0728,-0.80788 0.26363,-0.16395 0.60751,-0.0238 0.86458,-0.18499 0.12137,-0.18154 0.0858,-0.55392 -0.19594,-0.54234 -0.2997,-0.0266 -0.72133,0.0337 -0.86154,-0.31284 -0.14909,-0.4614 -0.0636,-0.96053 -0.0883,-1.43761 0.0219,-0.16016 -0.0424,-0.4065 0.0305,-0.51561 0.0438,0 0.0874,0 0.13116,0 z m 9.64917,0 c 0.77759,0 1.55518,0 2.33276,0 0,0.91187 0,1.82372 0,2.73559 -0.83149,0 -1.66299,0 -2.49449,0 0,-0.91187 0,-1.82373 0,-2.73559 0.0539,0 0.10782,0 0.16173,0 z m 0.95304,1.05269 c -0.20101,-0.0161 -0.36057,0.15303 -0.30555,0.35329 0.0182,0.19056 0.0432,0.46547 0.28705,0.48339 0.19334,0.0438 0.52668,0.11587 0.56991,-0.15933 0.0148,-0.20561 0.082,-0.48689 -0.0925,-0.63796 -0.14392,-0.0585 -0.30711,-0.0438 -0.45892,-0.0394 z m 1.99261,3.88498 c -0.19815,0.006 -0.43722,0.0765 -0.45837,0.31062 -0.11711,0.60443 -0.11326,1.20137 -0.13393,1.82233 0.006,0.15619 -0.0154,0.42864 0.21693,0.40272 0.18173,-0.0198 0.43777,0.071 0.56571,-0.0897 0.12514,-0.44968 0.0611,-0.9296 0.0787,-1.39223 -0.0197,-0.34529 0.0387,-0.71641 -0.0948,-1.04125 -0.051,-0.0315 -0.11791,-0.0139 -0.17425,-0.0125 z m -28.62581,0.85218 c 0.28854,-0.0225 0.63742,0.26459 0.46966,0.56454 -0.22101,0.37481 -0.95853,0.30857 -1.00556,-0.16232 0.009,-0.26755 0.29735,-0.41113 0.5359,-0.40222 z m 7.23701,0 c 0.28861,-0.0221 0.63661,0.26436 0.46966,0.56454 -0.22159,0.37423 -0.95832,0.30868 -1.00555,-0.16232 0.009,-0.26748 0.29737,-0.41123 0.53589,-0.40222 z m 7.47811,0 c 0.28861,-0.0221 0.63662,0.26436 0.46966,0.56454 -0.22159,0.37423 -0.95832,0.30868 -1.00556,-0.16232 0.009,-0.26748 0.29737,-0.41123 0.5359,-0.40222 z m 9.15623,-6.1e-4 c 0.74467,0.0184 1.50534,-0.0115 2.23288,0.16943 0.20826,0.0269 0.31313,0.319 0.10168,0.42435 -0.47904,0.18861 -1.01126,0.162 -1.51741,0.19815 -0.97299,0.0175 -1.95676,0.0437 -2.91946,-0.11866 -0.18107,-0.018 -0.44788,-0.16978 -0.31819,-0.37907 0.21199,-0.21647 0.55969,-0.18693 0.83969,-0.23448 0.52533,-0.0493 1.05347,-0.0563 1.58081,-0.0598 z m -23.86538,1.69005 c 0.32597,0.0403 0.34681,0.44423 0.3874,0.69925 0.12955,1.38767 0.0949,2.78491 0.11498,4.17728 -6.1e-4,2.68169 0.0285,5.36438 -0.049,8.04525 -0.041,0.48925 -0.004,1.00932 -0.20277,1.46811 -0.11803,0.25127 -0.50308,0.19012 -0.56872,-0.0692 -0.18142,-0.59975 -0.14883,-1.23933 -0.18402,-1.85929 -0.0564,-3.01708 -0.0409,-6.03518 -0.0231,-9.0526 0.0286,-0.98726 -0.01,-1.98402 0.14636,-2.96202 0.0331,-0.19947 0.13234,-0.4635 0.37884,-0.44675 z m 7.23701,0 c 0.32593,0.0406 0.34581,0.44371 0.38661,0.69858 0.12741,1.33696 0.0954,2.68349 0.11488,4.02518 0.003,3.03869 0.0309,6.07991 -0.11776,9.1159 -0.0467,0.23684 0.0295,0.54998 -0.17963,0.71911 -0.26024,-0.004 -0.62026,-0.13823 -0.61059,-0.44833 -0.11164,-1.61692 -0.10299,-3.24018 -0.12527,-4.8604 -0.008,-2.54115 -0.0286,-5.08332 0.0442,-7.62371 0.0385,-0.48537 0.007,-0.99936 0.19879,-1.45566 0.0557,-0.10452 0.16736,-0.18182 0.28884,-0.17068 z m 7.47812,-6.2e-4 c 0.32614,0.0323 0.35405,0.43055 0.39028,0.68442 0.11741,1.34275 0.0689,2.69372 0.0776,4.0402 -0.0246,2.69854 -0.0199,5.39895 -0.13659,8.0953 -0.0448,0.51057 -0.0242,1.04527 -0.20834,1.52998 -0.086,0.22352 -0.41042,0.17134 -0.45116,-0.0537 -0.16571,-0.64921 -0.1367,-1.32991 -0.17146,-1.99516 -0.0579,-3.02571 -0.0455,-6.0525 -0.0232,-9.07855 0.0283,-0.93697 -0.009,-1.88422 0.15107,-2.81097 0.035,-0.18916 0.14289,-0.42638 0.37179,-0.41151 z m 11.90553,9.49579 c -0.19872,-0.0188 -0.34224,0.15265 -0.29999,0.345 -0.0334,0.22506 0.2093,0.3086 0.39278,0.28816 0.19442,0.0157 0.51363,-0.008 0.48525,-0.27819 0.0414,-0.18347 -0.0808,-0.36878 -0.27965,-0.35209 -0.099,-0.0108 -0.19898,-0.009 -0.29839,-0.003 z m -0.24706,1.68529 c -0.33805,0.0281 -0.67497,-0.0323 -0.98109,0.12591 -0.10237,0.19576 -0.0256,0.54686 0.25493,0.51074 0.29401,-0.0285 0.60552,0.15243 0.6438,0.46198 0.0665,0.2224 -0.0375,0.49819 0.11816,0.68689 0.21664,0.0869 0.48617,0.0837 0.7024,-10e-4 0.18607,-0.26936 -0.003,-0.66228 0.21663,-0.93035 0.24115,-0.32318 0.69177,-0.13045 1.00317,-0.28824 0.0968,-0.11992 0.12635,-0.37423 -0.0109,-0.47131 -0.4462,-0.13574 -0.91894,-0.0766 -1.39145,-0.0972 -0.18519,-3e-4 -0.3704,0.002 -0.5556,0.003 z m 1.89653,3.37949 c -0.2741,-0.007 -0.23313,0.33383 -0.25217,0.52187 -0.004,0.55054 -0.0462,1.10959 0.0444,1.65454 0.0681,0.22322 0.36505,0.1251 0.53881,0.1435 0.2632,0.0351 0.26721,-0.27823 0.2757,-0.46168 0.005,-0.57096 0.0506,-1.15098 -0.0429,-1.71621 -0.0662,-0.22989 -0.38811,-0.12108 -0.56394,-0.14202 z m -3.1939,0.66599 c 0.37524,0.0291 0.81494,-0.0437 1.13132,0.20269 0.23255,0.22298 0.0769,0.63878 -0.23319,0.69007 -0.68229,0.16149 -1.39354,0.10352 -2.08928,0.12452 -0.70697,-0.0182 -1.42801,0.0308 -2.12259,-0.12304 -0.22632,-0.0292 -0.40602,-0.30739 -0.22212,-0.49261 0.30134,-0.2572 0.73475,-0.24631 1.10759,-0.30369 0.8068,-0.075 1.61836,-0.09 2.42827,-0.0979 z m -25.22185,0.0292 c 0.36376,0.006 0.71431,0.42952 0.56574,0.78058 -0.24567,0.38094 -0.90208,0.19599 -0.95184,-0.24348 -0.052,-0.25067 0.10497,-0.54507 0.3861,-0.5371 z m 7.52825,0.002 c 0.43679,0.0376 0.46711,0.68112 0.13427,0.88322 -0.26537,0.22077 -0.81408,0.0776 -0.77341,-0.31927 0.054,-0.29574 0.32036,-0.58491 0.63914,-0.56395 z m 7.18688,-0.002 c 0.36369,0.006 0.71371,0.42841 0.56574,0.77998 -0.24467,0.38181 -0.90239,0.19678 -0.95185,-0.24288 -0.052,-0.25067 0.10497,-0.54507 0.38611,-0.5371 z" /></g><style
     type="text/css"
     id="style3254">
	.st0{fill:#000000;}
</style></svg>
