<svg width="2279.4" height="451.02" version="1.1" viewBox="0 0 175.75 34.775" xmlns="http://www.w3.org/2000/svg">
 <g clip-rule="evenodd" fill-rule="evenodd">
  <path d="m 20.444,0 c 9.008,0 16.685,4.998 19.397,11.899 H 17.89 L 8.587,31.537 C 3.396,28.379 0,23.211 0,17.388 -0.001,7.811 9.183,0 20.444,0 Z" fill="#33348e"/>
  <path d="m40.706 15.072c0.12 0.758 0.183 1.531 0.183 2.315 0 9.577-9.184 17.388-20.445 17.388-1.546 0-3.052-0.148-4.501-0.428l5.313-12.137c1.122-2.561-0.436-5.059-3.168-7.139h22.618z" fill="#cc2229"/>
  <path d="m85.01 6.396h-20.25c-5.333 0-12.045 5.4-13.273 10.53l-0.848 3.544c-1.768 7.383 2.848 12.148 7.52 12.148h15.896c2.531 0 5.281-3.088 5.889-5.568l2.533-10.328-13.976 0.102-1.966 3.646h6.378c1.051 0 0.524 2.133 0.18 3.139l-1.144 3.34c-0.375 1.098-1.38 2.432-2.525 2.432h-7.594c-3.192 0-3.719-5.9-2.885-9.012l0.95-3.544c0.984-3.674 5.319-7.087 9.088-7.087h15.187zm90.737 0h-15.699c-5.332 0-12.045 5.4-13.273 10.53l-0.848 3.544c-1.768 7.383 2.848 12.148 7.52 12.148h15.896l0.855-3.215h-13.152v-0.027c-3.098-0.088-3.631-5.811-2.836-8.92h18.023l0.795-3.162h-17.973l0.127-0.47c0.984-3.674 5.318-7.087 9.088-7.087h10.637c0.279-1.113 0.561-2.227 0.84-3.341zm-29.15 0h-15.699c-5.334 0-12.047 5.4-13.273 10.53l-0.85 3.544c-1.768 7.383 2.85 12.148 7.521 12.148h15.896l0.854-3.215h-13.152v-0.027c-3.096-0.088-3.629-5.811-2.836-8.92h18.023l0.795-3.162h-17.971l0.125-0.47c0.984-3.674 5.32-7.087 9.088-7.087h10.637c0.281-1.113 0.56-2.227 0.842-3.341zm-57.487 0-6.479 26.122 8.403 0.102 5.467-22.983h10.43c1.404 0 2.172 2.365 1.924 3.746-0.283 1.574-1.945 3.999-4.455 3.999h-7.67l8.277 15.137h9.416l-6.682-11.947c4.352-0.629 8.77-3.92 9.012-8.507 0.115-2.216-2.164-5.667-6-5.667h-21.643z" fill="#33348e"/>
 </g>
</svg>
