<svg width="2149.5" height="1023.7" version="1.1" viewBox="0 0 165.73 78.932" xmlns="http://www.w3.org/2000/svg">
 <path d="m39.467 78.932c21.796 0 39.467-17.67 39.467-39.466s-17.67-39.466-39.467-39.466-39.467 17.67-39.467 39.466 17.67 39.466 39.467 39.466z" fill="#a70b52"/>
 <path d="m39.467 6.4281c-18.247 0-33.039 14.791-33.039 33.038 0 18.247 14.792 33.038 33.038 33.038 18.246 0 33.038-14.791 33.038-33.038 0-0.594-0.01508-1.181-0.04608-1.767h-23.333v3.0311h20.352l-8e-3 0.08493c-0.70598 15.961-13.868 28.683-30.002 28.683-16.587 0-30.033-13.445-30.033-30.032 0-16.586 13.447-30.032 30.033-30.032a31.023 31.023 0 0 1 1.4341 0.03298l0.0039-3.008c-0.477-0.021-0.95699-0.03087-1.438-0.03087zm-12.324 15.896a4.6425 4.6425 0 0 0 0 9.285 4.6425 4.6425 0 0 0 0-9.285zm10.73 0.1411v33.938h3.0311v-0.0199h8.1729v-3.0281h-8.1729v-30.89z" fill="#fff"/>
 <path d="m98.531 58.838h28.201v-8.517h-17.847v-30.498h-10.354zm62.274-36.268c-3.233-2.505-7.396-3.775-12.364-3.775-5.899 0-10.828 1.812-14.255 5.236-3.577 3.579-5.471 8.851-5.471 15.246 0 6.832 2.002 12.597 5.637 16.229 2.854 2.853 6.656 4.358 11.007 4.358 9.551 0 11.748-5.725 11.748-5.725v4.697h8.625v-22.034h-17.169v6.895h7.902s0.076 8.681-8.08 8.681c-2.072 0-3.918-0.752-5.338-2.172-2.213-2.211-3.383-5.937-3.383-10.767 0-8 3.18-12.776 8.504-12.776 3.326 0 5.826 2.042 6.467 5.137h10.984c-0.569-4.497-1.803-6.841-4.814-9.23z" fill="#808183"/>
</svg>
