<svg width="2426.5" height="839.14" version="1.1" viewBox="0 0 187.09 64.7" xmlns="http://www.w3.org/2000/svg">
 <g clip-rule="evenodd" fill-rule="evenodd">
  <path d="m40.898 57.487c0-1.158 0.062-3.49 1.683-3.49 1.359 0 1.714 1.605 1.714 3.305 0 1.375 0.015 3.676-1.837 3.676-1.204-1e-3 -1.56-1.392-1.56-3.491l-1.266-0.062c0 3.459 1.127 4.588 2.749 4.588 0.787 0 1.343-0.355 1.853-1.236h0.031c-0.016 0.941 0.186 2.889-1.791 2.889-0.741 0-1.236-0.295-1.344-1.066h-1.189c0.17 1.467 1.189 2.1 2.564 2.1 0.942 0 1.822-0.34 2.362-1.189 0.572-0.91 0.649-1.713 0.649-2.764v-7.551h-1.22v0.973h-0.031c-0.417-0.818-1.127-1.205-1.915-1.205-2.27 0-2.718 2.656-2.718 4.463zm-21.047-0.34c-0.602 0.355-1.282 0.617-1.93 0.926-0.571 0.264-0.757 0.896-0.757 1.482 0 0.865 0.216 1.422 1.205 1.422 0.463 0 1.482-0.355 1.482-1.746l1.267 0.988c0 0.217-0.031 0.525 0.216 0.648 0.169 0.047 0.355 0.031 0.525 0.016v0.896c-0.093 0.016-0.186 0.031-0.278 0.062-1.035 0.045-1.421-0.047-1.544-1.221h-0.031c-0.293 0.756-1.081 1.391-1.899 1.391-1.714 0-2.208-0.959-2.208-2.518 0-0.324 0.046-1.561 1.235-2.086 0.695-0.309 2.425-0.957 2.579-1.08 0.262-0.201 0.231-0.541 0.231-0.988 0-0.973-0.371-1.344-1.359-1.344-1.112 0-1.267 0.51-1.251 1.514h-1.096c-0.062-1.777 0.818-2.549 2.548-2.549 2.548 0 2.332 2.131 2.332 2.332v4.926l-1.267-0.988zm48.509 0.293c0-2.641 0.664-3.443 1.683-3.443 1.637 0 1.667 2.178 1.667 3.352v1.064c0 0.973-0.354 2.564-1.621 2.564-1.668 0-1.729-1.684-1.729-3.537l-1.235 0.031c0.031 0.756-0.186 4.541 2.517 4.541 1.035 0 1.56-0.34 2.085-1.359h0.031v1.127h1.173v-11.582h-1.22v3.877h-0.03c-0.572-0.742-1.097-1.113-1.977-1.113-1.837 0-2.671 1.992-2.579 4.51zm45.195-3.444c1.283 0 1.809 0.988 1.809 3.582 0 2.023-0.355 3.398-1.809 3.398-1.42 0-1.805-1.375-1.805-3.398 0-2.593 0.555-3.582 1.805-3.582v-1.035c-2.115 0-3.072 1.637-3.072 4.232 0 3.705 1.221 4.818 3.072 4.818 1.885 0 3.074-1.098 3.074-4.818 0-2.596-0.957-4.232-3.074-4.232zm-113.52-9.818h182.38v1.361h-182.38zm90.622-34.883c4.883 0 7.368 4.89 7.368 10.921s-2.484 10.92-7.368 10.92-7.368-4.889-7.368-10.92c0-6.032 2.485-10.921 7.368-10.921v-9.295c-11.583 0-17.943 8.406-17.968 20.216 0.025 11.811 6.384 20.216 17.968 20.216 11.583 0 17.942-8.405 17.967-20.216-0.025-11.811-6.385-20.216-17.967-20.216zm54.737-8.498v38.383h10.22v-10.107l3.86-4.655 8.744 14.762h12.834l-14.424-23.166 13.061-15.217h-12.946l-11.129 14.99v-14.99zm-79.494 0h10.902l-13.4 26.233v12.15h-10.221v-14.081l-12.378-24.302h11.016l7.041 13.741zm55.191 8.382h7.381a4.336 4.336 0 0 1 0 8.672l-7.381-0.021v8.403h6.699c2.727 0 4.43 2.499 4.656 4.997l0.682 7.949h10.902c-0.455-1.021-0.795-1.021-0.908-3.066l-0.342-6.131c0-3.634-2.611-7.268-4.883-8.29 1.932-1.022 5.225-5.337 5.225-9.539s-2.045-11.356-10.676-11.356h-21.576v38.383h10.221zm-121.09 52.601v-11.582h1.283v4.834h4.431v-4.834h1.282v11.582h-1.282v-5.59h-4.431v5.59zm14.396-4.186c-0.062-2.008 0.093-4.633-2.687-4.633-2.271 0-2.749 2.703-2.749 4.51 0 3.459 1.158 4.541 2.78 4.541 1.807 0 2.671-1.406 2.594-3.09h-1.143c0.077 0.973-0.247 2.055-1.421 2.055-1.714 0-1.514-2.225-1.544-3.383v-1.004c0.046-1.02 0.077-2.594 1.499-2.594 1.42 0 1.358 1.59 1.405 2.594h-2.903v1.004zm10.76-4.4h1.436v1.035h-1.421v5.852c0 0.293-0.107 0.664 0.572 0.664h0.818v1.035h-1.343c-0.726 0.016-1.267-0.107-1.267-1.406v-6.145h-1.189v-1.035h1.189v-2.332h1.205zm3.179 8.586v-8.586h1.22v8.586zm0-10.038v-1.544h1.22v1.544zm4.941 2.393c0.618-0.74 1.251-1.174 2.178-1.174 1.281 0 2.115 0.68 2.115 2.193v6.625h-1.22v-6.285c0-0.896-0.293-1.498-1.282-1.498-0.447 0-0.88 0.17-1.204 0.479-0.494 0.447-0.556 0.941-0.556 1.561v5.744h-1.22v-8.586h1.189zm22.347 3.012c-0.603 0.355-1.282 0.617-1.93 0.926-0.571 0.264-0.757 0.896-0.757 1.482 0 0.865 0.216 1.422 1.205 1.422 0.463 0 1.482-0.355 1.482-1.746l1.267 0.988c0 0.217-0.031 0.525 0.216 0.648 0.169 0.047 0.354 0.031 0.525 0.016v0.896c-0.093 0.016-0.186 0.031-0.278 0.062-1.035 0.045-1.42-0.047-1.544-1.221h-0.031c-0.293 0.756-1.081 1.391-1.899 1.391-1.715 0-2.209-0.959-2.209-2.518 0-0.324 0.046-1.561 1.236-2.086 0.695-0.309 2.424-0.957 2.579-1.08 0.262-0.201 0.231-0.541 0.231-0.988 0-0.973-0.371-1.344-1.359-1.344-1.112 0-1.267 0.51-1.251 1.514h-1.096c-0.062-1.777 0.818-2.549 2.548-2.549 2.548 0 2.332 2.131 2.332 2.332v4.926l-1.267-0.988zm5.048-3.012c0.617-0.74 1.251-1.174 2.177-1.174 1.282 0 2.116 0.68 2.116 2.193v6.625h-1.22v-6.285c0-0.896-0.293-1.498-1.282-1.498-0.448 0-0.88 0.17-1.205 0.479-0.494 0.447-0.556 0.941-0.556 1.561v5.744h-1.22v-8.586h1.189v0.941zm23.722 3.15-1.498-6.162h-0.031l-1.529 6.162-0.309 1.159-0.849 3.336h-1.421l3.305-11.582h1.699l3.258 11.582h-1.421l-0.911-3.336h-3.66l0.309-1.159zm4.199 4.495v-8.586h1.22v8.586zm0-10.038v-1.544h1.22v1.544zm5.049 2.856h0.031c0.509-1.127 1.236-1.605 2.517-1.498v1.205c-1.576-0.277-2.502 0.711-2.502 2.27v5.205h-1.22v-8.586h1.174zm13.679-0.926c-0.031-1.375-0.479-2.549-2.084-2.549-2.225 0-2.256 3.166-2.256 4.695-0.061 1.574-0.092 5.08 2.256 5.08 1.527 0 1.854-1.25 2.008-2.518 0.029-0.262 0.045-0.523 0.076-0.787h1.281c-0.029 0.232-0.029 0.479-0.061 0.711-0.078 0.941-0.125 1.652-0.68 2.455-0.604 0.834-1.406 1.297-2.518 1.297-3.566 0-3.691-3.443-3.691-6.207 0-2.611 0.387-5.885 3.676-5.885 2.193 0 3.336 1.637 3.273 3.707h-1.28zm12.756 0.463c0.617-0.74 1.25-1.174 2.178-1.174 1.281 0 2.115 0.68 2.115 2.193v6.625h-1.221v-6.285c0-0.896-0.293-1.498-1.281-1.498-0.447 0-0.881 0.17-1.205 0.479-0.494 0.447-0.555 0.941-0.555 1.561v5.744h-1.221v-8.586h1.189v0.941zm7.692 3.305c0-2.641 0.664-3.443 1.684-3.443 1.637 0 1.668 2.178 1.668 3.352v1.064c0 0.973-0.355 2.564-1.623 2.564-1.669 0-1.729-1.684-1.729-3.537l-1.236 0.031c0.031 0.756-0.186 4.541 2.518 4.541 1.035 0 1.561-0.34 2.084-1.359h0.031v1.127h1.174v-11.582h-1.219v3.877h-0.031c-0.572-0.742-1.098-1.113-1.977-1.113-1.838 0-2.672 1.992-2.58 4.51zm7.166 4.34v-8.586h1.218v8.586zm0-10.038v-1.544h1.218v1.544zm5.156 1.452h1.436v1.035h-1.42v5.852c0 0.293-0.107 0.664 0.57 0.664h0.82v1.035h-1.344c-0.727 0.016-1.268-0.107-1.268-1.406v-6.145h-1.189v-1.035h1.189v-2.332h1.205v2.332zm3.18 8.586v-8.586h1.218v8.586zm0-10.038v-1.544h1.218v1.544zm6.484 2.254c1.281 0 1.807 0.988 1.807 3.582 0 2.023-0.355 3.398-1.807 3.398-1.42 0-1.807-1.375-1.807-3.398 0-2.593 0.555-3.582 1.807-3.582v-1.035c-2.115 0-3.072 1.637-3.072 4.232 0 3.705 1.219 4.818 3.072 4.818 1.885 0 3.072-1.098 3.072-4.818 0-2.596-0.957-4.232-3.072-4.232zm6.486 0.139c0.617-0.74 1.25-1.174 2.178-1.174 1.281 0 2.115 0.68 2.115 2.193v6.625h-1.219v-6.285c0-0.896-0.295-1.498-1.283-1.498-0.447 0-0.879 0.17-1.203 0.479-0.496 0.447-0.557 0.941-0.557 1.561v5.744h-1.221v-8.586h1.189v0.941zm6.826 7.645v-8.586h1.221v8.586zm0-10.038v-1.544h1.221v1.544zm4.942 2.393c0.617-0.74 1.25-1.174 2.178-1.174 1.281 0 2.115 0.68 2.115 2.193v6.625h-1.221v-6.285c0-0.896-0.293-1.498-1.281-1.498-0.447 0-0.881 0.17-1.205 0.479-0.494 0.447-0.555 0.941-0.555 1.561v5.744h-1.221v-8.586h1.189v0.941zm7.676 3.352c0-1.158 0.061-3.49 1.684-3.49 1.357 0 1.713 1.605 1.713 3.305 0 1.375 0.016 3.676-1.838 3.676-1.204-1e-3 -1.559-1.392-1.559-3.491l-1.266-0.062c0 3.459 1.127 4.588 2.748 4.588 0.787 0 1.344-0.355 1.854-1.236h0.029c-0.014 0.941 0.186 2.889-1.791 2.889-0.74 0-1.234-0.295-1.344-1.066h-1.188c0.17 1.467 1.188 2.1 2.562 2.1 0.941 0 1.822-0.34 2.363-1.189 0.57-0.91 0.648-1.713 0.648-2.764v-7.551h-1.221v0.973h-0.031c-0.416-0.818-1.127-1.205-1.914-1.205-2.27 0-2.717 2.656-2.717 4.463z"/>
  <path d="m182.92 1.739c1.865 0 3.338 1.472 3.338 3.423 0 1.984-1.473 3.445-3.338 3.445-1.885 0-3.357-1.461-3.357-3.445-1e-3 -1.952 1.472-3.423 3.357-3.423v-0.687c-2.268 0-4.186 1.744-4.186 4.11 0 2.388 1.918 4.132 4.186 4.132 2.246 0 4.166-1.745 4.166-4.132 0-2.366-1.92-4.11-4.166-4.11z"/>
  <path d="m182.05 3.407h0.98c0.502 0 1.037 0.109 1.037 0.698 0 0.73-0.547 0.774-1.156 0.774h-0.861v0.611h0.828l1.254 2.061h0.807l-1.352-2.093c0.697-0.087 1.232-0.458 1.232-1.308 0-0.938-0.557-1.353-1.68-1.353h-1.811v4.754h0.721v-4.144zm-169.62 5.967c-1.722 1.222-2.902 3.232-2.902 5.504a6.737 6.737 0 0 0 2.899 5.542zm-3.241 0.363a8.794 8.794 0 0 0-1.076 1.968l-8.08-1.937v-8.972h12.378l0.026 6.24c-0.672 0.334-1.352 0.752-1.913 1.241l-5.093-5.094-1.365 1.365zm-1.58 3.831c-0.059 0.41-0.089 0.885-0.089 1.311 0 0.503 0.042 0.996 0.124 1.476l-7.61 1.874v-6.529z"/>
  <path d="m14.338 0.797v2.925l2.21-1.505 0.773 1.008-2.983 2.058v7.04l5.766-2.957 0.083-4.312 1.277 0.037-0.057 3.655 2.349-1.21 0.747 1.467-2.556 1.334 3.084 2.032-0.688 1.122-3.73-2.501-6.274 3.151v0.738l6.165 3.118 3.795-2.493 0.688 1.064-3.153 2.115 2.711 1.365-0.748 1.467-2.645-1.356 0.098 3.743-1.277 0.038-0.155-4.462-5.479-2.783v8.148l2.602 1.748-0.66 1.15-1.941-1.309v2.3h-1.93l-9e-3 -6.002a8.757 8.757 0 0 1-1.8-1.185l-5.241 5.241-1.408-1.409 5.282-5.294a8.771 8.771 0 0 1-1.048-1.847l-8.154 1.922v19.021h38.952v-38.382z"/>
 </g>
</svg>
