<svg class="logo-svg" width="170px" height="50px" version="1.1" viewBox="0 0 44.855 13.198" xmlns="http://www.w3.org/2000/svg">
 <style>.text>*{fill:currentColor;}</style>
 <g class="text">
   <path d="m19.292 0c-1.9641 0-3.3588 1.12-3.3588 2.8639 0 1.7622 0.51352 2.1657 1.725 3.5975l1.9091 1.9642c0.47726 0.55068 0.7527 1.0649 0.7527 1.7441 0 0.7526-0.45896 1.1744-1.028 1.1744-0.58739 0-1.028-0.38511-1.028-1.1744v-1.1935h-2.3127v1.3399c0 1.8356 1.4868 2.8819 3.3407 2.8819 1.8356 0 3.3959-1.028 3.3959-2.8819 0-1.5235-0.56904-2.2207-1.4868-3.267l-2.2942-2.6252c-0.53232-0.60575-0.64289-1.0279-0.64289-1.5786 0-0.58739 0.44061-1.0094 1.028-1.0094 0.55068 0 1.028 0.49563 1.028 1.3951v0.53204h2.2947v-0.89911c0-1.7071-1.377-2.8639-3.3227-2.8639zm-15.97 0.16549v10.133c0 0.38548-0.36727 1.046-1.1749 1.046-0.38548 0-0.7339-0.12855-0.99088-0.33046l-1.1564 1.3585c0.40383 0.47726 1.1744 0.80786 2.1473 0.80786 2.5515 0 3.4877-1.5606 3.4877-2.8639v-10.151h-2.3127zm4.0749 0v12.849h2.2947v-6.0391h2.4231v6.0391h2.2942v-12.849h-2.2942v4.9926h-2.4231v-4.9926h-2.2947z" fill="#fff" stroke-width=".077254px"/>
   <path d="m28.627 0c-0.44729 0.0088018-0.61608 0.29272-0.61608 0.5274v1.3595c0 0.23505 0.17434 0.5238 0.63773 0.5238 0.4231 0 0.61453-0.28848 0.61453-0.52689v-0.18457h-0.42326v0.18457c0 0.070516-0.070388 0.19127-0.19127 0.19127-0.14775 0-0.21137-0.12075-0.21137-0.19127v-1.3564c0-0.070516 0.063626-0.19178 0.21137-0.19178 0.12088 0 0.19127 0.12127 0.19127 0.19178v0.18457h0.42326v-0.18457c0-0.23841-0.19144-0.5274-0.61453-0.5274-0.00724 0-0.014553-1.3971e-4 -0.021653 0zm1.4544 0c-0.44699 0.0085993-0.6068 0.2858-0.6068 0.5238v1.3564c0 0.24177 0.16455 0.5305 0.62794 0.5305 0.41974 0 0.60783-0.28873 0.60783-0.5305v-1.3564c0-0.24177-0.18809-0.5238-0.60783-0.5238-0.00724 0-0.014042-1.365e-4 -0.021137 0zm5.4462 0c-0.44729 0.0088018-0.61659 0.29272-0.61659 0.5274v1.3595c0 0.23505 0.17486 0.5238 0.63825 0.5238 0.4231 0 0.61453-0.28848 0.61453-0.52689v-0.18457h-0.42326v0.18457c0 0.070516-0.070387 0.19127-0.19127 0.19127-0.14775 0-0.21189-0.12075-0.21189-0.19127v-1.3564c0-0.070516 0.064143-0.19178 0.21189-0.19178 0.12088 0 0.19127 0.12127 0.19127 0.19178v0.18457h0.42326v-0.18457c0-0.23841-0.19144-0.5274-0.61453-0.5274-0.00724 0-0.014553-1.3971e-4 -0.021653 0zm2.2462 0c-0.44699 0.0085993-0.60628 0.2858-0.60628 0.5238v1.3564c0 0.24177 0.16455 0.5305 0.62794 0.5305 0.41974 0 0.60783-0.28873 0.60783-0.5305v-1.3564c0-0.24177-0.18809-0.5238-0.60783-0.5238-0.007241 0-0.014558-1.365e-4 -0.021653 0zm6.2495 0c-0.44699 0.0085993-0.6068 0.2858-0.6068 0.5238v1.3564c0 0.24177 0.16455 0.5305 0.62794 0.5305 0.41974 0 0.60783-0.28873 0.60783-0.5305v-1.3564c0-0.24177-0.18809-0.5238-0.60783-0.5238-0.00724 0-0.014042-1.365e-4 -0.021137 0zm-19.851 0.030417-0.48358 2.3504h0.39646l0.080425-0.54751h0.40625l0.084034 0.54751h0.41966l-0.48358-2.3504h-0.41966zm1.1481 0v2.3504h0.41656v-0.94706h0.13456l0.39955 0.94706h0.43615l-0.44286-1.0043c0.20147-0.10074 0.35263-0.32563 0.35263-0.67485 0-0.37608-0.19148-0.67124-0.59442-0.67124h-0.70218zm5.6952 0v2.3504h0.41966v-1.3466h0.006702l0.41295 1.3466h0.41966v-2.3504h-0.41966v1.3028h-0.006702l-0.38924-1.3028h-0.44337zm1.5817 0v2.3504h0.75888c0.36265 0 0.5238-0.31246 0.5238-0.67176v-1.0074c0-0.097379-0.013361-0.19134-0.033511-0.282-0.053726-0.22498-0.25187-0.38924-0.49028-0.38924h-0.75888zm1.5879 0v2.3504h0.42017v-2.3504h-0.42017zm2.2565 0v2.3504h0.42017v-2.3504h-0.42017zm2.2669 0v2.3504h0.41966v-1.3466h0.006702l0.41295 1.3466h0.41966v-2.3504h-0.41966v1.3028h-0.006702l-0.38924-1.3028h-0.44337zm1.9879 0-0.48358 2.3504h0.39594l0.080941-0.54751h0.40625l0.084035 0.54751h0.41966l-0.48358-2.3504h-0.41966zm1.1481 0v2.3504h0.75888c0.36265 0 0.5238-0.31246 0.5238-0.67176v-1.0074c0-0.097379-0.01336-0.19134-0.03351-0.282-0.053726-0.22498-0.25188-0.38924-0.49028-0.38924h-0.75888zm-11.743 0.2985c0.12088 0 0.18818 0.12797 0.18818 0.19849v1.3461c0 0.070516-0.067292 0.20158-0.18818 0.20158-0.14775 0-0.20776-0.12435-0.20776-0.20158v-1.3528c0-0.0638 0.060016-0.19178 0.20776-0.19178zm7.693 0c0.12088 0 0.18817 0.12797 0.18817 0.19849v1.3461c0 0.070516-0.067292 0.20158-0.18817 0.20158-0.14775 0-0.20828-0.12435-0.20828-0.20158v-1.3528c0-0.0638 0.060531-0.19178 0.20828-0.19178zm6.2489 0c0.12088 0 0.18818 0.12797 0.18818 0.19849v1.3461c0 0.070516-0.067293 0.20158-0.18818 0.20158-0.14775 0-0.20776-0.12435-0.20776-0.20158v-1.3528c0-0.0638 0.060016-0.19178 0.20776-0.19178zm-18.307 0.037119h0.27221c0.16454 0 0.20776 0.14758 0.20776 0.33562 0 0.34251-0.073424 0.37635-0.34542 0.37635h-0.13456v-0.71197zm7.28 0h0.25159c0.1679 0 0.21189 0.14758 0.21189 0.33562v1.0074c0 0.18804-0.043992 0.33614-0.21189 0.33614h-0.25159v-1.6791zm9.2474 0h0.2521c0.1679 0 0.21137 0.14758 0.21137 0.33562v1.0074c0 0.18804-0.043476 0.33614-0.21137 0.33614h-0.2521v-1.6791zm-17.897 0.28561h0.009795l0.12786 0.8424h-0.2686l0.13095-0.8424zm16.524 0h0.010311l0.12734 0.8424h-0.2686l0.13095-0.8424zm-14.069 0.59443v0.51658h0.97026v-0.51658h-0.97026z" fill="#fff" stroke-width=".077254px"/>
 </g>
 <path d="m43.093 3.3044 1.7621 3.1101h-19.599l-1.7621-3.1101z" fill="#ff0505"/>
 <path d="m43.093 6.6962 1.7621 3.1101h-19.599l-1.7621-3.1101z" fill="#ff7905"/>
 <path d="m43.093 10.088 1.7621 3.1101h-19.599l-1.7621-3.1101z" fill="#ffc12d"/>
</svg>
