<svg xmlns="http://www.w3.org/2000/svg" width="317.24mm" height="46.9mm" viewBox="0 0 317.24 46.9"><path fill="#fff" fill-opacity=".09" d="M0 0v7.622h25.473L21.154 0zm211.99 1.769 5.723 10.1h57.695l-5.723-10.1zM45.69 2.876l2.689 4.746h29.909l-2.69-4.746zm73.075 1.836 4.319 7.623h41.027l-4.319-7.623zm47.976.485 2.69 4.746h29.908l-2.689-4.746zm113.63 1.622 2.69 4.746h29.908L310.28 6.82zM3.511 10.78l4.32 7.622h41.026l-4.319-7.623zm59.479.241 4.044 7.139h44.982l-4.045-7.139zm115.89 2.373 4.044 7.139h44.982l-4.045-7.139zm66.62 1.196 4.044 7.138h44.981l-4.044-7.138zm-103.31 1.197 2.689 4.746h29.909l-2.69-4.746zm46.519 7.12 5.723 10.1h57.695l-5.723-10.1zm-185.84.862 5.723 10.1h57.695l-5.723-10.1zm131.41.215 3.508 6.19h39.016l-3.508-6.19zm-55.985.4 3.508 6.192h39.016l-3.509-6.191zm186.05.476 3.508 6.191h39.016l-3.509-6.191zM77.854 36.8l5.723 10.1h57.695l-5.723-10.1zm127.49.406 4.044 7.138h44.982l-4.045-7.138zm59.078 0 4.044 7.138h48.778v-7.138zm-238.23.833 4.32 7.622h41.026l-4.319-7.622zM.003 39.477v4.746h19.872l-2.69-4.746zm153.57.705 2.689 4.746h29.909l-2.69-4.746z"/></svg>